SplineFontDB: 3.2
FontName: Untitled1
FullName: Untitled1
FamilyName: Untitled1
Weight: Regular
Copyright: Copyright (c) 2025, Bastien
UComments: "2025-9-7: Created with FontForge (http://fontforge.org)"
Version: 001.000
ItalicAngle: 0
UnderlinePosition: -100
UnderlineWidth: 50
Ascent: 800
Descent: 200
InvalidEm: 0
LayerCount: 2
Layer: 0 0 "Arri+AOgA-re" 1
Layer: 1 0 "Avant" 0
XUID: [1021 960 425975637 16265629]
OS2Version: 0
OS2_WeightWidthSlopeOnly: 0
OS2_UseTypoMetrics: 1
CreationTime: 1757238136
ModificationTime: 1757238136
OS2TypoAscent: 0
OS2TypoAOffset: 1
OS2TypoDescent: 0
OS2TypoDOffset: 1
OS2TypoLinegap: 0
OS2WinAscent: 0
OS2WinAOffset: 1
OS2WinDescent: 0
OS2WinDOffset: 1
HheadAscent: 0
HheadAOffset: 1
HheadDescent: 0
HheadDOffset: 1
OS2Vendor: 'PfEd'
DEI: 91125
Encoding: ISO8859-1
UnicodeInterp: none
NameList: AGL For New Fonts
DisplaySize: -48
AntiAlias: 1
FitToEm: 0
WinInfo: 0 37 14
BeginChars: 256 95

StartChar: exclam
Encoding: 33 33 1
Width: 302
Flags: HW
LayerCount: 2
Fore
SplineSet
139.208984375 722.682617188 m 1
 171.23046875 722.682617188 l 1
 169.629882812 238.75 l 1
 140.809570312 238.75 l 1
 139.208984375 722.682617188 l 1
175.18359375 20.3564453125 m 0
 175.18359375 15.0615234375 173.080078125 9.984375 169.3359375 6.240234375 c 0
 165.591796875 2.4970703125 160.514648438 0.392578125 155.219726562 0.392578125 c 0
 149.924804688 0.392578125 144.846679688 2.4970703125 141.103515625 6.240234375 c 0
 137.359375 9.984375 135.255859375 15.0615234375 135.255859375 20.3564453125 c 0
 135.255859375 25.6513671875 137.359375 30.7294921875 141.103515625 34.47265625 c 0
 144.846679688 38.216796875 149.924804688 40.3203125 155.219726562 40.3203125 c 0
 160.514648438 40.3203125 165.591796875 38.216796875 169.3359375 34.47265625 c 0
 173.080078125 30.7294921875 175.18359375 25.6513671875 175.18359375 20.3564453125 c 0
EndSplineSet
EndChar

StartChar: quotedbl
Encoding: 34 34 2
Width: 382
Flags: HW
LayerCount: 2
Fore
SplineSet
184.791992188 772.936523438 m 1
 215.162109375 772.936523438 l 1
 215.162109375 577.215820312 l 1
 184.791992188 577.215820312 l 1
 184.791992188 772.936523438 l 1
207.642578125 577.215820312 m 1
 177.272460938 577.215820312 l 1
 177.272460938 772.936523438 l 1
 207.642578125 772.936523438 l 1
 207.642578125 577.215820312 l 1
EndSplineSet
EndChar

StartChar: numbersign
Encoding: 35 35 3
Width: 605
Flags: HW
LayerCount: 2
Fore
SplineSet
98.744140625 513.040039062 m 1
 98.744140625 536.951171875 l 1
 521.729492188 536.951171875 l 1
 521.729492188 513.040039062 l 1
 98.744140625 513.040039062 l 1
98.744140625 244.76171875 m 1
 98.744140625 268.671875 l 1
 521.729492188 268.671875 l 1
 521.729492188 244.76171875 l 1
 98.744140625 244.76171875 l 1
98.744140625 0.392578125 m 1
 240.475585938 722.682617188 l 1
 272.37109375 722.682617188 l 1
 130.639648438 0.392578125 l 1
 98.744140625 0.392578125 l 1
348.102539062 0.392578125 m 1
 489.833984375 722.682617188 l 1
 521.729492188 722.682617188 l 1
 379.998046875 0.392578125 l 1
 348.102539062 0.392578125 l 1
EndSplineSet
EndChar

StartChar: dollar
Encoding: 36 36 4
Width: 576
Flags: HW
LayerCount: 2
Fore
SplineSet
531.321289062 583.26171875 m 1
 531.321289062 485.056640625 l 1
 508.565429688 485.056640625 l 1
 508.565429688 583.26171875 l 1
 531.321289062 583.26171875 l 1
62.1083984375 85.619140625 m 1
 62.1083984375 183.82421875 l 1
 84.865234375 183.82421875 l 1
 84.865234375 85.619140625 l 1
 62.1083984375 85.619140625 l 1
301.1640625 686.014648438 m 0
 388.997070312 686.014648438 472.682617188 648.653320312 531.321289062 583.26171875 c 1
 518.16796875 564.692382812 l 1
 463.446289062 627.32421875 384.333984375 663.2578125 301.1640625 663.2578125 c 0
 183.357421875 663.2578125 92.5849609375 619.05078125 92.5849609375 512.513671875 c 0
 92.5849609375 426.29296875 152.0703125 380.439453125 239.903320312 361.76953125 c 2
 355.360351562 337.227539062 l 2
 458.5078125 315.302734375 528.424804688 261.53125 528.424804688 160.295898438 c 0
 528.424804688 36.697265625 425.114257812 -17.1337890625 289.368164062 -17.1337890625 c 0
 202.368164062 -17.1337890625 119.575195312 20.30078125 62.1083984375 85.619140625 c 1
 75.2626953125 104.188476562 l 1
 128.8046875 41.6337890625 207.02734375 5.623046875 289.368164062 5.623046875 c 0
 407.786132812 5.623046875 497.947265625 52.4990234375 497.947265625 160.295898438 c 0
 497.947265625 247.868164062 439.37109375 296.10546875 350.62890625 314.96875 c 2
 235.171875 339.509765625 l 2
 132.920898438 361.244140625 62.1083984375 412.602539062 62.1083984375 512.513671875 c 0
 62.1083984375 634.848632812 166.03125 686.014648438 301.1640625 686.014648438 c 0
285.986328125 772.841796875 m 1
 316.342773438 772.841796875 l 1
 304.545898438 -103.9609375 l 1
 274.189453125 -103.9609375 l 1
 285.986328125 772.841796875 l 1
EndSplineSet
EndChar

StartChar: percent
Encoding: 37 37 5
Width: 792
Flags: HW
LayerCount: 2
Fore
SplineSet
166.729492188 0.392578125 m 1
 612.911132812 722.682617188 l 1
 644.93359375 722.682617188 l 1
 198.751953125 0.392578125 l 1
 166.729492188 0.392578125 l 1
196.75 730.9375 m 1
 297.864257812 730.9375 358.999023438 663.880859375 358.999023438 561.19921875 c 0
 358.999023438 458.517578125 297.864257812 391.4609375 196.75 391.4609375 c 0
 95.63671875 391.4609375 34.5009765625 458.517578125 34.5009765625 561.19921875 c 0
 34.5009765625 663.880859375 95.63671875 730.9375 196.75 730.9375 c 1
 196.75 707.02734375 l 1
 113.48828125 707.02734375 66.5234375 647.703125 66.5234375 561.19921875 c 0
 66.5234375 474.694335938 113.48828125 415.37109375 196.75 415.37109375 c 0
 280.012695312 415.37109375 326.977539062 474.694335938 326.977539062 561.19921875 c 0
 326.977539062 647.703125 280.012695312 707.02734375 196.75 707.02734375 c 1
 196.75 730.9375 l 1
614.913085938 -7.8623046875 m 1
 513.798828125 -7.8623046875 452.663085938 59.1953125 452.663085938 161.876953125 c 0
 452.663085938 264.55859375 513.798828125 331.615234375 614.913085938 331.615234375 c 0
 716.026367188 331.615234375 777.162109375 264.55859375 777.162109375 161.876953125 c 0
 777.162109375 59.1953125 716.026367188 -7.8623046875 614.913085938 -7.8623046875 c 1
 614.913085938 16.048828125 l 1
 698.174804688 16.048828125 745.139648438 75.3720703125 745.139648438 161.876953125 c 0
 745.139648438 248.380859375 698.174804688 307.705078125 614.913085938 307.705078125 c 0
 531.650390625 307.705078125 484.685546875 248.380859375 484.685546875 161.876953125 c 0
 484.685546875 75.3720703125 531.650390625 16.048828125 614.913085938 16.048828125 c 1
 614.913085938 -7.8623046875 l 1
EndSplineSet
EndChar

StartChar: ampersand
Encoding: 38 38 6
Width: 596
Flags: HW
LayerCount: 2
Fore
SplineSet
254.702148438 730.9375 m 0
 323.279296875 730.9375 388.655273438 701.922851562 434.663085938 651.068359375 c 1
 420.721679688 631.666015625 l 1
 380.551757812 682.384765625 319.401367188 711.958984375 254.702148438 711.958984375 c 0
 146.618164062 711.958984375 78.025390625 644.680664062 78.025390625 536.944335938 c 0
 78.025390625 463.658203125 129.357421875 400.388671875 201.0703125 385.28515625 c 1
 545.849609375 385.28515625 l 1
 545.849609375 366.34375 l 1
 201.0703125 366.34375 l 1
 158.293945312 375.814453125 l 1
 90.8427734375 400.737304688 46.0537109375 465.036132812 46.0537109375 536.944335938 c 0
 46.0537109375 659.065429688 129.520507812 730.9375 254.702148438 730.9375 c 0
158.293945312 375.814453125 m 1
 201.0703125 366.34375 l 1
 120.62890625 344.69140625 64.7265625 271.752929688 64.7265625 188.44921875 c 0
 64.7265625 84.7451171875 116.587890625 11.1162109375 214.659179688 11.1162109375 c 0
 315.74609375 11.1162109375 400.649414062 87.1640625 411.73828125 187.640625 c 1
 425.077148438 156.977539062 l 1
 400.809570312 60.0908203125 313.736328125 -7.8623046875 213.856445312 -7.8623046875 c 0
 99.5595703125 -7.8623046875 32.7294921875 70.7919921875 32.7294921875 188.20703125 c 0
 32.7294921875 270.401367188 82.30859375 344.477539062 158.293945312 375.814453125 c 1
411.73828125 375.814453125 m 1
 443.645507812 375.814453125 l 1
 443.645507812 187.640625 l 1
 525.213867188 0.392578125 l 1
 493.19140625 0.392578125 l 1
 411.73828125 187.640625 l 1
 411.73828125 375.814453125 l 1
EndSplineSet
EndChar

StartChar: quotesingle
Encoding: 39 39 7
Width: 147
Flags: HW
LayerCount: 2
Fore
SplineSet
60.14453125 800 m 1
 91.359375 800 l 1
 89.7978515625 598.834960938 l 1
 61.705078125 598.834960938 l 1
 60.14453125 800 l 1
EndSplineSet
EndChar

StartChar: parenleft
Encoding: 40 40 8
Width: 335
Flags: HW
LayerCount: 2
Fore
SplineSet
281.783203125 772.936523438 m 1
 304.459960938 772.936523438 l 1
 188.831054688 655.528320312 124.01953125 497.352539062 124.01953125 332.565429688 c 0
 124.01953125 167.778320312 188.831054688 9.6015625 304.459960938 -107.806640625 c 1
 281.783203125 -107.806640625 l 1
 161.614257812 7.166015625 93.6494140625 166.25390625 93.6494140625 332.565429688 c 0
 93.6494140625 498.875976562 161.614257812 657.963867188 281.783203125 772.936523438 c 1
EndSplineSet
EndChar

StartChar: parenright
Encoding: 41 41 9
Width: 335
Flags: HW
LayerCount: 2
Fore
SplineSet
38.96875 772.936523438 m 1
 61.6455078125 772.936523438 l 1
 181.814453125 657.963867188 249.779296875 498.875976562 249.779296875 332.565429688 c 0
 249.779296875 166.25390625 181.814453125 7.166015625 61.6455078125 -107.806640625 c 1
 38.96875 -107.806640625 l 1
 154.596679688 9.6015625 219.409179688 167.778320312 219.409179688 332.565429688 c 0
 219.409179688 497.352539062 154.596679688 655.528320312 38.96875 772.936523438 c 1
EndSplineSet
EndChar

StartChar: asterisk
Encoding: 42 42 10
Width: 535
Flags: HW
LayerCount: 2
Fore
SplineSet
270.186523438 587.658203125 m 1
 80.28125 647.6875 l 1
 89.8310546875 677.079101562 l 1
 278.751953125 614.018554688 l 1
 270.186523438 587.658203125 l 1
285.680664062 592.692382812 m 1
 169.90625 430.629882812 l 1
 144.904296875 448.794921875 l 1
 263.256835938 608.984375 l 1
 285.680664062 592.692382812 l 1
285.680664062 608.984375 m 1
 404.034179688 448.794921875 l 1
 379.032226562 430.629882812 l 1
 263.256835938 592.692382812 l 1
 285.680664062 608.984375 l 1
270.186523438 614.018554688 m 1
 459.106445312 677.079101562 l 1
 468.657226562 647.6875 l 1
 278.751953125 587.658203125 l 1
 270.186523438 614.018554688 l 1
260.610351562 600.837890625 m 1
 259.016601562 800 l 1
 289.920898438 800 l 1
 288.327148438 600.837890625 l 1
 260.610351562 600.837890625 l 1
EndSplineSet
EndChar

StartChar: plus
Encoding: 43 43 11
Width: 605
Flags: HW
LayerCount: 2
Fore
SplineSet
77.7109375 277.349609375 m 1
 77.7109375 301.259765625 l 1
 542.762695312 301.259765625 l 1
 542.762695312 277.349609375 l 1
 77.7109375 277.349609375 l 1
294.225585938 56.7783203125 m 1
 294.225585938 521.830078125 l 1
 326.248046875 521.830078125 l 1
 326.248046875 56.7783203125 l 1
 294.225585938 56.7783203125 l 1
EndSplineSet
EndChar

StartChar: comma
Encoding: 44 44 12
Width: 232
Flags: HW
LayerCount: 2
Fore
SplineSet
140.819335938 103.577148438 m 1
 172.841796875 103.577148438 l 1
 94.0771484375 -102.791015625 l 1
 65.2568359375 -102.791015625 l 1
 140.819335938 103.577148438 l 1
EndSplineSet
EndChar

StartChar: hyphen
Encoding: 45 45 13
Width: 605
Flags: HW
LayerCount: 2
Fore
SplineSet
77.7109375 277.349609375 m 1
 77.7109375 301.259765625 l 1
 542.762695312 301.259765625 l 1
 542.762695312 277.349609375 l 1
 77.7109375 277.349609375 l 1
EndSplineSet
EndChar

StartChar: period
Encoding: 46 46 14
Width: 252
Flags: HW
LayerCount: 2
Fore
SplineSet
149.34765625 12.1015625 m 0
 149.34765625 6.806640625 147.243164062 1.7294921875 143.5 -2.0146484375 c 0
 139.755859375 -5.7578125 134.678710938 -7.8623046875 129.383789062 -7.8623046875 c 0
 124.088867188 -7.8623046875 119.010742188 -5.7578125 115.267578125 -2.0146484375 c 0
 111.5234375 1.7294921875 109.419921875 6.806640625 109.419921875 12.1015625 c 0
 109.419921875 17.396484375 111.5234375 22.474609375 115.267578125 26.2177734375 c 0
 119.010742188 29.9619140625 124.088867188 32.0654296875 129.383789062 32.0654296875 c 0
 134.678710938 32.0654296875 139.755859375 29.9619140625 143.5 26.2177734375 c 0
 147.243164062 22.474609375 149.34765625 17.396484375 149.34765625 12.1015625 c 0
EndSplineSet
EndChar

StartChar: slash
Encoding: 47 47 15
Width: 418
Flags: HW
LayerCount: 2
Fore
SplineSet
356.173828125 730.9375 m 1
 388.196289062 730.9375 l 1
 73.1103515625 -7.8623046875 l 1
 41.0888671875 -7.8623046875 l 1
 356.173828125 730.9375 l 1
EndSplineSet
EndChar

StartChar: zero
Encoding: 48 48 16
Width: 555
Flags: HW
LayerCount: 2
Fore
SplineSet
284.400390625 730.9375 m 1
 459.848632812 730.9375 503.543945312 563.05859375 503.543945312 361.538085938 c 0
 503.543945312 160.016601562 459.848632812 -7.8623046875 284.400390625 -7.8623046875 c 0
 108.953125 -7.8623046875 65.2568359375 160.016601562 65.2568359375 361.538085938 c 0
 65.2568359375 563.05859375 108.953125 730.9375 284.400390625 730.9375 c 1
 284.400390625 711.958984375 l 1
 123.1171875 711.958984375 97.2294921875 548.732421875 97.2294921875 361.538085938 c 0
 97.2294921875 174.34375 123.1171875 11.1162109375 284.400390625 11.1162109375 c 0
 445.68359375 11.1162109375 471.572265625 174.34375 471.572265625 361.538085938 c 0
 471.572265625 548.732421875 445.68359375 711.958984375 284.400390625 711.958984375 c 1
 284.400390625 730.9375 l 1
EndSplineSet
EndChar

StartChar: one
Encoding: 49 49 17
Width: 555
Flags: HW
LayerCount: 2
Fore
SplineSet
279.670898438 722.682617188 m 1
 311.693359375 722.682617188 l 1
 311.693359375 0.392578125 l 1
 279.670898438 0.392578125 l 1
 279.670898438 703.704101562 l 1
 98.744140625 609.577148438 l 1
 98.744140625 628.555664062 l 1
 279.670898438 722.682617188 l 1
98.744140625 19.37109375 m 1
 295.682617188 19.37109375 l 1
 511.755859375 19.37109375 l 1
 511.755859375 0.392578125 l 1
 98.744140625 0.392578125 l 1
 98.744140625 19.37109375 l 1
EndSplineSet
EndChar

StartChar: two
Encoding: 50 50 18
Width: 555
Flags: HW
LayerCount: 2
Fore
SplineSet
68.6142578125 629.438476562 m 1
 111.126953125 692.87109375 182.462890625 730.9375 258.82421875 730.9375 c 0
 389.91796875 730.9375 470.403320312 645.603515625 470.403320312 513.223632812 c 0
 470.403320312 423.541015625 412.225585938 348.706054688 348.987304688 284.721679688 c 0
 348.965820312 284.700195312 80.765625 13.3359375 80.744140625 13.314453125 c 2
 65.2568359375 24.28515625 l 1
 65.2783203125 24.306640625 329.705078125 291.852539062 329.7265625 291.874023438 c 0
 389.897460938 352.754882812 438.405273438 427.840820312 438.405273438 513.223632812 c 0
 438.405273438 631.49609375 373.108398438 711.958984375 258.82421875 711.958984375 c 0
 186.328125 711.958984375 118.8203125 675.052734375 79.6884765625 614.025390625 c 1
 68.6142578125 629.438476562 l 1
65.2568359375 0.392578125 m 1
 65.2568359375 24.28515625 l 1
 470.88671875 24.28515625 l 1
 470.88671875 0.392578125 l 1
 65.2568359375 0.392578125 l 1
EndSplineSet
EndChar

StartChar: three
Encoding: 51 51 19
Width: 555
Flags: HW
LayerCount: 2
Fore
SplineSet
74.0966796875 722.682617188 m 1
 470.057617188 722.682617188 l 1
 470.057617188 722.49609375 l 1
 470.057617188 698.809570312 l 1
 212.311523438 452.96875 l 1
 189.66796875 430.325195312 l 1
 74.0966796875 722.682617188 l 1
189.66796875 430.325195312 m 1
 268.310546875 452.96875 l 1
 411.8125 452.96875 503.543945312 364.594726562 503.543945312 221.983398438 c 0
 503.543945312 78.4609375 407.779296875 -7.8623046875 261.7578125 -7.8623046875 c 0
 162.12109375 -7.8623046875 93.771484375 27.7626953125 36.705078125 109.436523438 c 1
 55.3125 122.465820312 l 1
 107.655273438 47.5361328125 170.35546875 14.8525390625 261.7578125 14.8525390625 c 0
 389.951171875 14.8525390625 471.521484375 94.341796875 471.521484375 221.983398438 c 0
 471.521484375 348.255859375 393.959960938 429.114257812 268.561523438 429.114257812 c 1
 189.66796875 406.470703125 l 1
 189.66796875 430.325195312 l 1
EndSplineSet
EndChar

StartChar: four
Encoding: 52 52 20
Width: 555
Flags: HW
LayerCount: 2
Fore
SplineSet
336.594726562 722.682617188 m 1
 368.616210938 722.682617188 l 1
 97.279296875 196.54296875 l 1
 65.2568359375 196.54296875 l 1
 336.594726562 722.682617188 l 1
65.2568359375 172.631835938 m 1
 65.2568359375 196.54296875 l 1
 527.712890625 196.54296875 l 1
 527.712890625 172.631835938 l 1
 65.2568359375 172.631835938 l 1
367.885742188 355.231445312 m 1
 399.858398438 394.66015625 l 1
 399.858398438 0.392578125 l 1
 367.885742188 0.392578125 l 1
 367.885742188 355.231445312 l 1
EndSplineSet
EndChar

StartChar: five
Encoding: 53 53 21
Width: 555
Flags: HW
LayerCount: 2
Fore
SplineSet
98.744140625 722.682617188 m 1
 474.950195312 722.682617188 l 1
 474.950195312 698.772460938 l 1
 98.744140625 698.772460938 l 1
 98.744140625 722.682617188 l 1
98.744140625 722.682617188 m 1
 130.715820312 722.682617188 l 1
 130.715820312 345.9609375 l 1
 98.744140625 345.9609375 l 1
 98.744140625 722.682617188 l 1
111.7421875 345.9609375 m 1
 143.23046875 428.91796875 202.751953125 469.990234375 291.484375 469.990234375 c 0
 425.671875 469.990234375 503.543945312 376.938476562 503.543945312 238.75 c 0
 503.543945312 87.22265625 407.706054688 -7.8623046875 255.979492188 -7.8623046875 c 0
 182.008789062 -7.8623046875 111.846679688 24.9443359375 64.41796875 81.7080078125 c 1
 78.2392578125 101.219726562 l 1
 121.518554688 47.359375 186.885742188 16.029296875 255.979492188 16.029296875 c 0
 389.72265625 16.029296875 471.521484375 103.502929688 471.521484375 238.75 c 0
 471.521484375 361.64453125 407.221679688 447.323242188 289.904296875 447.323242188 c 0
 221.657226562 447.323242188 159.586914062 407.799804688 130.715820312 345.9609375 c 1
 111.7421875 345.9609375 l 1
EndSplineSet
EndChar

StartChar: six
Encoding: 54 54 22
Width: 555
Flags: HW
LayerCount: 2
Fore
SplineSet
498.45703125 650.853515625 m 1
 484.658203125 631.373046875 l 1
 445.084960938 679.306640625 386.173828125 707.064453125 324.014648438 707.064453125 c 0
 140.2265625 707.064453125 97.279296875 529.767578125 97.279296875 318.202148438 c 2
 97.279296875 231.111328125 l 2
 97.279296875 104.403320312 163.479492188 16.0107421875 284.400390625 16.0107421875 c 0
 414.8359375 16.0107421875 495.690429688 99.876953125 495.690429688 231.111328125 c 0
 495.690429688 360.016601562 422.072265625 446.211914062 296.485351562 446.211914062 c 0
 170.8984375 446.211914062 97.279296875 360.016601562 97.279296875 231.111328125 c 1
 76.021484375 231.111328125 l 1
 76.021484375 374.467773438 158.249023438 470.102539062 298.065429688 470.102539062 c 0
 440.916015625 470.102539062 527.712890625 375.918945312 527.712890625 231.111328125 c 0
 527.712890625 83.580078125 432.841796875 -7.8623046875 284.400390625 -7.8623046875 c 0
 122.8359375 -7.8623046875 65.2568359375 136.545898438 65.2568359375 318.202148438 c 0
 65.2568359375 545.787109375 124.23046875 730.9375 324.014648438 730.9375 c 0
 391.053710938 730.9375 454.7578125 701.692382812 498.45703125 650.853515625 c 1
EndSplineSet
EndChar

StartChar: seven
Encoding: 55 55 23
Width: 555
Flags: HW
LayerCount: 2
Fore
SplineSet
65.2568359375 698.772460938 m 1
 65.2568359375 722.682617188 l 1
 503.543945312 722.682617188 l 1
 503.543945312 698.772460938 l 1
 65.2568359375 698.772460938 l 1
471.521484375 698.772460938 m 1
 503.543945312 698.772460938 l 1
 200.940429688 0.392578125 l 1
 168.91796875 0.392578125 l 1
 471.521484375 698.772460938 l 1
EndSplineSet
EndChar

StartChar: eight
Encoding: 56 56 24
Width: 555
Flags: HW
LayerCount: 2
Fore
SplineSet
284.400390625 707.046875 m 1
 284.400390625 730.9375 l 1
 398.004882812 730.9375 470.057617188 660.162109375 470.057617188 546.896484375 c 0
 470.057617188 434.599609375 397.533203125 365.227539062 284.400390625 365.227539062 c 0
 171.268554688 365.227539062 98.744140625 434.599609375 98.744140625 546.896484375 c 0
 98.744140625 660.162109375 170.796875 730.9375 284.400390625 730.9375 c 1
 284.400390625 707.046875 l 1
 188.77734375 707.046875 130.766601562 643.883789062 130.766601562 546.896484375 c 0
 130.766601562 449.908203125 188.77734375 386.74609375 284.400390625 386.74609375 c 0
 380.024414062 386.74609375 438.03515625 449.908203125 438.03515625 546.896484375 c 0
 438.03515625 643.883789062 380.024414062 707.046875 284.400390625 707.046875 c 1
284.400390625 365.154296875 m 1
 284.400390625 386.671875 l 1
 414.458007812 386.671875 503.543945312 315.883789062 503.543945312 190.62890625 c 0
 503.543945312 64.4267578125 414.903320312 -7.8623046875 284.400390625 -7.8623046875 c 0
 153.897460938 -7.8623046875 65.2568359375 64.4267578125 65.2568359375 190.62890625 c 0
 65.2568359375 315.883789062 154.34375 386.671875 284.400390625 386.671875 c 1
 284.400390625 365.154296875 l 1
 172.03125 365.154296875 97.279296875 300.366210938 97.279296875 190.62890625 c 0
 97.279296875 80.861328125 172.017578125 16.029296875 284.400390625 16.029296875 c 0
 396.784179688 16.029296875 471.521484375 80.861328125 471.521484375 190.62890625 c 0
 471.521484375 300.366210938 396.770507812 365.154296875 284.400390625 365.154296875 c 1
EndSplineSet
EndChar

StartChar: nine
Encoding: 57 57 25
Width: 555
Flags: HW
LayerCount: 2
Fore
SplineSet
77.9296875 91.703125 m 1
 124.435546875 43.3525390625 188.626953125 16.029296875 255.712890625 16.029296875 c 0
 468.774414062 16.029296875 471.521484375 239.854492188 471.521484375 487.940429688 c 0
 471.521484375 616.389648438 406.262695312 707.02734375 284.400390625 707.02734375 c 0
 162.5390625 707.02734375 97.279296875 616.389648438 97.279296875 487.940429688 c 0
 97.279296875 363.076171875 164.462890625 277.08984375 284.400390625 277.08984375 c 0
 404.338867188 277.08984375 471.521484375 363.076171875 471.521484375 487.940429688 c 1
 499.991210938 487.940429688 l 1
 509.849609375 361.354492188 409.790039062 253.19921875 282.8203125 253.19921875 c 0
 145.700195312 253.19921875 65.2568359375 347.232421875 65.2568359375 487.940429688 c 0
 65.2568359375 632.474609375 144.831054688 730.9375 284.400390625 730.9375 c 0
 444.516601562 730.9375 503.543945312 589.149414062 503.543945312 409.693359375 c 0
 503.543945312 181.486328125 454.407226562 -7.8623046875 255.712890625 -7.8623046875 c 0
 183.711914062 -7.8623046875 114.711914062 20.9814453125 64.1298828125 72.22265625 c 1
 77.9296875 91.703125 l 1
EndSplineSet
EndChar

StartChar: colon
Encoding: 58 58 26
Width: 277
Flags: HW
LayerCount: 2
Fore
SplineSet
162.265625 12.1015625 m 0
 162.265625 6.806640625 160.162109375 1.7294921875 156.41796875 -2.0146484375 c 0
 152.674804688 -5.7578125 147.596679688 -7.8623046875 142.301757812 -7.8623046875 c 0
 137.006835938 -7.8623046875 131.9296875 -5.7578125 128.185546875 -2.0146484375 c 0
 124.44140625 1.7294921875 122.337890625 6.806640625 122.337890625 12.1015625 c 0
 122.337890625 17.396484375 124.44140625 22.474609375 128.185546875 26.2177734375 c 0
 131.9296875 29.9619140625 137.006835938 32.0654296875 142.301757812 32.0654296875 c 0
 147.596679688 32.0654296875 152.674804688 29.9619140625 156.41796875 26.2177734375 c 0
 160.162109375 22.474609375 162.265625 17.396484375 162.265625 12.1015625 c 0
162.265625 525.2421875 m 0
 162.265625 519.947265625 160.162109375 514.869140625 156.41796875 511.125976562 c 0
 152.674804688 507.381835938 147.596679688 505.278320312 142.301757812 505.278320312 c 0
 137.006835938 505.278320312 131.9296875 507.381835938 128.185546875 511.125976562 c 0
 124.44140625 514.869140625 122.337890625 519.947265625 122.337890625 525.2421875 c 0
 122.337890625 530.537109375 124.44140625 535.614257812 128.185546875 539.358398438 c 0
 131.9296875 543.1015625 137.006835938 545.206054688 142.301757812 545.206054688 c 0
 147.596679688 545.206054688 152.674804688 543.1015625 156.41796875 539.358398438 c 0
 160.162109375 535.614257812 162.265625 530.537109375 162.265625 525.2421875 c 0
EndSplineSet
EndChar

StartChar: semicolon
Encoding: 59 59 27
Width: 277
Flags: HW
LayerCount: 2
Fore
SplineSet
162.265625 12.1015625 m 0
 162.265625 6.806640625 160.162109375 1.7294921875 156.41796875 -2.0146484375 c 0
 152.674804688 -5.7578125 147.596679688 -7.8623046875 142.301757812 -7.8623046875 c 0
 137.006835938 -7.8623046875 131.9296875 -5.7578125 128.185546875 -2.0146484375 c 0
 124.44140625 1.7294921875 122.337890625 6.806640625 122.337890625 12.1015625 c 0
 122.337890625 17.396484375 124.44140625 22.474609375 128.185546875 26.2177734375 c 0
 131.9296875 29.9619140625 137.006835938 32.0654296875 142.301757812 32.0654296875 c 0
 147.596679688 32.0654296875 152.674804688 29.9619140625 156.41796875 26.2177734375 c 0
 160.162109375 22.474609375 162.265625 17.396484375 162.265625 12.1015625 c 0
187.32421875 103.577148438 m 1
 219.346679688 103.577148438 l 1
 94.0771484375 -102.791015625 l 1
 65.2568359375 -102.791015625 l 1
 187.32421875 103.577148438 l 1
EndSplineSet
EndChar

StartChar: less
Encoding: 60 60 28
Width: 565
Flags: HW
LayerCount: 2
Fore
SplineSet
65.2568359375 256.716796875 m 1
 65.2568359375 280.626953125 l 1
 513.87890625 542.643554688 l 1
 513.87890625 510.62109375 l 1
 65.2568359375 256.716796875 l 1
65.2568359375 256.716796875 m 1
 65.2568359375 280.626953125 l 1
 513.87890625 26.72265625 l 1
 513.87890625 -5.2998046875 l 1
 65.2568359375 256.716796875 l 1
EndSplineSet
EndChar

StartChar: equal
Encoding: 61 61 29
Width: 605
Flags: HW
LayerCount: 2
Fore
SplineSet
98.744140625 300.380859375 m 1
 98.744140625 324.291015625 l 1
 521.729492188 324.291015625 l 1
 521.729492188 300.380859375 l 1
 98.744140625 300.380859375 l 1
521.729492188 236.962890625 m 1
 521.729492188 213.052734375 l 1
 98.744140625 213.052734375 l 1
 98.744140625 236.962890625 l 1
 521.729492188 236.962890625 l 1
EndSplineSet
EndChar

StartChar: greater
Encoding: 62 62 30
Width: 565
Flags: HW
LayerCount: 2
Fore
SplineSet
513.87890625 256.716796875 m 1
 65.2568359375 510.62109375 l 1
 65.2568359375 542.643554688 l 1
 513.87890625 280.626953125 l 1
 513.87890625 256.716796875 l 1
513.87890625 256.716796875 m 1
 65.2568359375 -5.2998046875 l 1
 65.2568359375 26.72265625 l 1
 513.87890625 280.626953125 l 1
 513.87890625 256.716796875 l 1
EndSplineSet
EndChar

StartChar: question
Encoding: 63 63 31
Width: 519
Flags: HW
LayerCount: 2
Fore
SplineSet
46.517578125 622.975585938 m 1
 99.10546875 691.064453125 180.28125 730.9375 266.314453125 730.9375 c 0
 387.713867188 730.9375 467.372070312 659.233398438 467.372070312 539.939453125 c 0
 467.372070312 441.91015625 400.4375 396.39453125 332.842773438 325.420898438 c 0
 285.171875 275.3671875 245.06640625 215.284179688 245.06640625 146.315429688 c 1
 213.043945312 146.315429688 l 1
 213.043945312 225.041015625 265.959960938 289.59375 321.000976562 346.193359375 c 0
 375.619140625 402.357421875 435.349609375 461.763671875 435.349609375 539.939453125 c 0
 435.349609375 642.869140625 369.653320312 707.02734375 266.314453125 707.02734375 c 0
 185.140625 707.02734375 108.752929688 668.620117188 60.3388671875 603.463867188 c 1
 46.517578125 622.975585938 l 1
249.018554688 12.1015625 m 0
 249.018554688 6.806640625 246.915039062 1.7294921875 243.171875 -2.0146484375 c 0
 239.427734375 -5.7578125 234.350585938 -7.8623046875 229.0546875 -7.8623046875 c 0
 223.759765625 -7.8623046875 218.682617188 -5.7578125 214.938476562 -2.0146484375 c 0
 211.1953125 1.7294921875 209.090820312 6.806640625 209.090820312 12.1015625 c 0
 209.090820312 17.396484375 211.1953125 22.474609375 214.938476562 26.2177734375 c 0
 218.682617188 29.9619140625 223.759765625 32.0654296875 229.0546875 32.0654296875 c 0
 234.350585938 32.0654296875 239.427734375 29.9619140625 243.171875 26.2177734375 c 0
 246.915039062 22.474609375 249.018554688 17.396484375 249.018554688 12.1015625 c 0
EndSplineSet
EndChar

StartChar: at
Encoding: 64 64 32
Width: 910
Flags: HW
LayerCount: 2
Fore
SplineSet
655.046875 -8.15625 m 1
 655.046875 -30.8642578125 l 1
 593.952148438 -49.8134765625 530.3515625 -59.4501953125 466.38671875 -59.4501953125 c 0
 215.6640625 -59.4501953125 61.974609375 104.076171875 61.974609375 357.405273438 c 0
 61.974609375 610.735351562 215.6640625 774.260742188 466.38671875 774.260742188 c 0
 720.45703125 774.260742188 870.797851562 601.614257812 870.797851562 341.649414062 c 0
 870.797851562 263.46484375 833.03515625 190.09375 769.409179688 144.65625 c 1
 757.188476562 143.6953125 l 1
 588.219726562 204.118164062 l 1
 598.16796875 224.53125 l 1
 761.584960938 165.97265625 l 1
 811.713867188 210.607421875 840.38671875 274.529296875 840.38671875 341.649414062 c 0
 840.38671875 586.25390625 703.506835938 751.553710938 466.38671875 751.553710938 c 0
 232.696289062 751.553710938 92.3857421875 595.311523438 92.3857421875 357.405273438 c 0
 92.3857421875 119.499023438 232.696289062 -36.7421875 466.38671875 -36.7421875 c 0
 530.3515625 -36.7421875 593.952148438 -27.10546875 655.046875 -8.15625 c 1
598.16796875 547.564453125 m 1
 620.875 547.564453125 l 1
 610.926757812 204.118164062 l 1
 588.219726562 204.118164062 l 1
 598.16796875 547.564453125 l 1
595.641601562 460.361328125 m 1
 612.260742188 472.133789062 l 1
 564.98828125 522.75 498.833984375 551.484375 429.576171875 551.484375 c 0
 135.170898438 551.484375 0.1923828125 311.0078125 0.1923828125 -9.6875 c 0
 0.1923828125 -403.76953125 277.124023438 143.6953125 429.576171875 143.6953125 c 0
 488.18359375 143.6953125 544.728515625 165.32421875 588.375 204.4375 c 1
 592.154296875 224.44921875 l 1
 546.288085938 186.912109375 488.844726562 166.40234375 429.576171875 166.40234375 c 0
 280.874023438 166.40234375 0.1923828125 -434.536132812 0.1923828125 -9.6875 c 0
 0.1923828125 300.849609375 141.110351562 528.776367188 429.576171875 528.776367188 c 0
 491.790039062 528.776367188 551.482421875 504.184570312 595.641601562 460.361328125 c 1
EndSplineSet
EndChar

StartChar: A
Encoding: 65 65 33
Width: 625
Flags: HW
LayerCount: 2
Fore
SplineSet
320.571289062 722.682617188 m 1
 336.58203125 722.682617188 l 1
 600.053710938 0.392578125 l 1
 568.03125 0.392578125 l 1
 306.2734375 722.682617188 l 1
 320.571289062 722.682617188 l 1
304.559570312 722.682617188 m 1
 334.868164062 722.682617188 l 1
 67.333984375 0.392578125 l 1
 41.0888671875 0.392578125 l 1
 304.559570312 722.682617188 l 1
152.377929688 228.420898438 m 1
 488.763671875 228.420898438 l 1
 488.763671875 205.743164062 l 1
 152.377929688 205.743164062 l 1
 152.377929688 228.420898438 l 1
EndSplineSet
EndChar

StartChar: B
Encoding: 66 66 34
Width: 615
Flags: HW
LayerCount: 2
Fore
SplineSet
98.744140625 722.682617188 m 1
 98.744140625 698.772460938 l 1
 26.515625 698.772460938 l 1
 26.515625 722.682617188 l 1
 98.744140625 722.682617188 l 1
98.744140625 0.392578125 m 1
 26.515625 0.392578125 l 1
 26.515625 24.3037109375 l 1
 98.744140625 24.3037109375 l 1
 98.744140625 0.392578125 l 1
98.744140625 722.682617188 m 1
 337.125976562 722.682617188 l 2
 464.61328125 722.682617188 558.106445312 664.669921875 558.106445312 546.188476562 c 0
 558.106445312 429.243164062 463.890625 374.120117188 337.125976562 374.120117188 c 1
 98.744140625 384.235351562 l 1
 98.744140625 395.564453125 l 1
 337.125976562 395.564453125 l 2
 446.251953125 395.564453125 526.083984375 445.614257812 526.083984375 547.16796875 c 0
 526.083984375 648.72265625 446.251953125 698.772460938 337.125976562 698.772460938 c 2
 98.744140625 698.772460938 l 1
 98.744140625 722.682617188 l 1
98.744140625 384.235351562 m 1
 337.125976562 384.841796875 l 2
 479.064453125 384.841796875 589.62890625 334.362304688 589.62890625 206.76171875 c 0
 589.62890625 69.7109375 483.580078125 0.392578125 337.125976562 0.392578125 c 2
 98.744140625 0.392578125 l 1
 114.754882812 24.3037109375 l 1
 337.125976562 24.3037109375 l 2
 464.030273438 24.3037109375 557.606445312 81.0185546875 557.606445312 198.604492188 c 0
 557.606445312 316.19140625 464.030273438 372.90625 337.125976562 372.90625 c 2
 98.744140625 372.90625 l 1
 98.744140625 384.235351562 l 1
98.744140625 722.682617188 m 1
 130.766601562 722.682617188 l 1
 130.766601562 0.392578125 l 1
 98.744140625 0.392578125 l 1
 98.744140625 722.682617188 l 1
EndSplineSet
EndChar

StartChar: C
Encoding: 67 67 35
Width: 610
Flags: HW
LayerCount: 2
Fore
SplineSet
568.508789062 610.467773438 m 1
 517.72265625 671.637695312 442.344726562 707.02734375 362.840820312 707.02734375 c 0
 181.180664062 707.02734375 97.279296875 559.169921875 97.279296875 361.538085938 c 0
 97.279296875 163.90625 181.180664062 16.048828125 362.840820312 16.048828125 c 0
 452.939453125 16.048828125 514.858398438 47.2275390625 568.508789062 119.611328125 c 1
 582.329101562 100.100585938 l 1
 529.869140625 32.0205078125 448.788085938 -7.8623046875 362.840820312 -7.8623046875 c 0
 163.8828125 -7.8623046875 65.2568359375 148.00390625 65.2568359375 361.538085938 c 0
 65.2568359375 575.072265625 163.8828125 730.9375 362.840820312 730.9375 c 0
 456.610351562 730.9375 521.30859375 701.178710938 582.329101562 629.978515625 c 1
 568.508789062 610.467773438 l 1
582.329101562 629.978515625 m 1
 582.329101562 526.794921875 l 1
 558.418945312 526.794921875 l 1
 558.418945312 629.978515625 l 1
 582.329101562 629.978515625 l 1
EndSplineSet
EndChar

StartChar: D
Encoding: 68 68 36
Width: 625
Flags: HW
LayerCount: 2
Fore
SplineSet
98.744140625 698.772460938 m 1
 98.744140625 722.682617188 l 1
 288.532226562 722.682617188 l 2
 479.310546875 722.682617188 576.262695312 575.505859375 576.262695312 371.853515625 c 0
 576.262695312 159.010742188 484.59765625 0.392578125 288.532226562 0.392578125 c 2
 98.744140625 0.392578125 l 1
 98.744140625 24.3037109375 l 1
 288.532226562 24.3037109375 l 2
 467.49609375 24.3037109375 544.240234375 174.8515625 544.240234375 371.853515625 c 0
 544.240234375 559.576171875 461.936523438 698.772460938 288.532226562 698.772460938 c 2
 98.744140625 698.772460938 l 1
98.744140625 722.682617188 m 1
 130.766601562 722.682617188 l 1
 130.766601562 0.392578125 l 1
 98.744140625 0.392578125 l 1
 98.744140625 722.682617188 l 1
98.744140625 722.682617188 m 1
 98.744140625 698.772460938 l 1
 26.515625 698.772460938 l 1
 26.515625 722.682617188 l 1
 98.744140625 722.682617188 l 1
98.744140625 0.392578125 m 1
 26.515625 0.392578125 l 1
 26.515625 24.3037109375 l 1
 98.744140625 24.3037109375 l 1
 98.744140625 0.392578125 l 1
EndSplineSet
EndChar

StartChar: E
Encoding: 69 69 37
Width: 555
Flags: HW
LayerCount: 2
Fore
SplineSet
98.744140625 722.682617188 m 1
 130.766601562 722.682617188 l 1
 130.766601562 0.392578125 l 1
 98.744140625 0.392578125 l 1
 98.744140625 722.682617188 l 1
114.754882812 698.772460938 m 1
 114.754882812 722.682617188 l 1
 511.755859375 722.682617188 l 1
 511.755859375 698.772460938 l 1
 114.754882812 698.772460938 l 1
114.754882812 349.583007812 m 1
 114.754882812 373.493164062 l 1
 454.913085938 373.493164062 l 1
 454.913085938 349.583007812 l 1
 114.754882812 349.583007812 l 1
114.754882812 0.392578125 m 1
 114.754882812 24.3037109375 l 1
 540.177734375 24.3037109375 l 1
 540.177734375 0.392578125 l 1
 114.754882812 0.392578125 l 1
98.744140625 722.682617188 m 1
 98.744140625 698.772460938 l 1
 26.515625 698.772460938 l 1
 26.515625 722.682617188 l 1
 98.744140625 722.682617188 l 1
98.744140625 0.392578125 m 1
 26.515625 0.392578125 l 1
 26.515625 24.3037109375 l 1
 98.744140625 24.3037109375 l 1
 98.744140625 0.392578125 l 1
511.755859375 698.772460938 m 1
 511.755859375 626.543945312 l 1
 487.845703125 626.543945312 l 1
 487.845703125 698.772460938 l 1
 511.755859375 698.772460938 l 1
540.177734375 24.3037109375 m 1
 516.266601562 24.3037109375 l 1
 516.266601562 96.5322265625 l 1
 540.177734375 96.5322265625 l 1
 540.177734375 24.3037109375 l 1
EndSplineSet
EndChar

StartChar: F
Encoding: 70 70 38
Width: 550
Flags: HW
LayerCount: 2
Fore
SplineSet
98.744140625 722.682617188 m 1
 98.744140625 698.772460938 l 1
 26.515625 698.772460938 l 1
 26.515625 722.682617188 l 1
 98.744140625 722.682617188 l 1
98.744140625 0.392578125 m 1
 26.515625 0.392578125 l 1
 26.515625 24.3037109375 l 1
 98.744140625 24.3037109375 l 1
 98.744140625 0.392578125 l 1
130.766601562 0.392578125 m 1
 130.766601562 24.3037109375 l 1
 202.995117188 24.3037109375 l 1
 202.995117188 0.392578125 l 1
 130.766601562 0.392578125 l 1
507.10546875 698.772460938 m 1
 507.10546875 626.543945312 l 1
 483.1953125 626.543945312 l 1
 483.1953125 698.772460938 l 1
 507.10546875 698.772460938 l 1
98.744140625 722.682617188 m 1
 130.766601562 722.682617188 l 1
 130.766601562 0.392578125 l 1
 98.744140625 0.392578125 l 1
 98.744140625 722.682617188 l 1
114.754882812 698.772460938 m 1
 114.754882812 722.682617188 l 1
 507.10546875 722.682617188 l 1
 507.10546875 698.772460938 l 1
 114.754882812 698.772460938 l 1
114.754882812 349.583007812 m 1
 114.754882812 373.493164062 l 1
 450.779296875 373.493164062 l 1
 450.779296875 349.583007812 l 1
 114.754882812 349.583007812 l 1
EndSplineSet
EndChar

StartChar: G
Encoding: 71 71 39
Width: 655
Flags: HW
LayerCount: 2
Fore
SplineSet
606.888671875 631.23046875 m 1
 606.888671875 528.045898438 l 1
 582.978515625 528.045898438 l 1
 582.978515625 631.23046875 l 1
 606.888671875 631.23046875 l 1
593.068359375 611.71875 m 1
 534.697265625 672.603515625 454.006835938 707.02734375 369.662109375 707.02734375 c 0
 185.6640625 707.02734375 97.279296875 560.2734375 97.279296875 361.538085938 c 0
 97.279296875 166.478515625 187.776367188 24.3037109375 369.662109375 24.3037109375 c 0
 450.65625 24.3037109375 530.99609375 38.7900390625 606.888671875 67.080078125 c 1
 606.888671875 43.1689453125 l 1
 530.99609375 14.8798828125 450.65625 0.392578125 369.662109375 0.392578125 c 0
 170.283203125 0.392578125 65.2568359375 150.500976562 65.2568359375 361.538085938 c 0
 65.2568359375 576.212890625 168.263671875 730.9375 369.662109375 730.9375 c 0
 458.924804688 730.9375 544.428710938 695 606.888671875 631.23046875 c 1
 593.068359375 611.71875 l 1
574.8671875 43.1689453125 m 1
 574.8671875 361.538085938 l 1
 606.888671875 361.538085938 l 1
 606.888671875 43.1689453125 l 1
 574.8671875 43.1689453125 l 1
606.888671875 373.493164062 m 1
 606.888671875 349.583007812 l 1
 336.073242188 349.583007812 l 1
 336.073242188 373.493164062 l 1
 606.888671875 373.493164062 l 1
EndSplineSet
EndChar

StartChar: H
Encoding: 72 72 40
Width: 615
Flags: HW
LayerCount: 2
Fore
SplineSet
98.744140625 722.682617188 m 1
 98.744140625 698.772460938 l 1
 26.515625 698.772460938 l 1
 26.515625 722.682617188 l 1
 98.744140625 722.682617188 l 1
130.766601562 722.682617188 m 1
 202.995117188 722.682617188 l 1
 202.995117188 698.772460938 l 1
 130.766601562 698.772460938 l 1
 130.766601562 722.682617188 l 1
500.041992188 722.682617188 m 1
 500.041992188 698.772460938 l 1
 427.813476562 698.772460938 l 1
 427.813476562 722.682617188 l 1
 500.041992188 722.682617188 l 1
532.064453125 722.682617188 m 1
 604.29296875 722.682617188 l 1
 604.29296875 698.772460938 l 1
 532.064453125 698.772460938 l 1
 532.064453125 722.682617188 l 1
98.744140625 0.392578125 m 1
 26.515625 0.392578125 l 1
 26.515625 24.3037109375 l 1
 98.744140625 24.3037109375 l 1
 98.744140625 0.392578125 l 1
130.766601562 0.392578125 m 1
 130.766601562 24.3037109375 l 1
 202.995117188 24.3037109375 l 1
 202.995117188 0.392578125 l 1
 130.766601562 0.392578125 l 1
500.041992188 0.392578125 m 1
 427.813476562 0.392578125 l 1
 427.813476562 24.3037109375 l 1
 500.041992188 24.3037109375 l 1
 500.041992188 0.392578125 l 1
532.064453125 0.392578125 m 1
 532.064453125 24.3037109375 l 1
 604.29296875 24.3037109375 l 1
 604.29296875 0.392578125 l 1
 532.064453125 0.392578125 l 1
98.744140625 722.682617188 m 1
 130.766601562 722.682617188 l 1
 130.766601562 0.392578125 l 1
 98.744140625 0.392578125 l 1
 98.744140625 722.682617188 l 1
500.041992188 0.392578125 m 1
 500.041992188 722.682617188 l 1
 532.064453125 722.682617188 l 1
 532.064453125 0.392578125 l 1
 500.041992188 0.392578125 l 1
114.754882812 385.69921875 m 1
 114.754882812 409.609375 l 1
 516.053710938 409.609375 l 1
 516.053710938 385.69921875 l 1
 114.754882812 385.69921875 l 1
EndSplineSet
EndChar

StartChar: I
Encoding: 73 73 41
Width: 232
Flags: HW
LayerCount: 2
Fore
SplineSet
103.038085938 722.682617188 m 1
 103.038085938 698.772460938 l 1
 30.8095703125 698.772460938 l 1
 30.8095703125 722.682617188 l 1
 103.038085938 722.682617188 l 1
135.060546875 722.682617188 m 1
 207.2890625 722.682617188 l 1
 207.2890625 698.772460938 l 1
 135.060546875 698.772460938 l 1
 135.060546875 722.682617188 l 1
103.038085938 0.392578125 m 1
 30.8095703125 0.392578125 l 1
 30.8095703125 24.3037109375 l 1
 103.038085938 24.3037109375 l 1
 103.038085938 0.392578125 l 1
135.060546875 0.392578125 m 1
 135.060546875 24.3037109375 l 1
 207.2890625 24.3037109375 l 1
 207.2890625 0.392578125 l 1
 135.060546875 0.392578125 l 1
103.038085938 722.682617188 m 1
 135.060546875 722.682617188 l 1
 135.060546875 0.392578125 l 1
 103.038085938 0.392578125 l 1
 103.038085938 722.682617188 l 1
EndSplineSet
EndChar

StartChar: J
Encoding: 74 74 42
Width: 484
Flags: HW
LayerCount: 2
Fore
SplineSet
365.694335938 722.682617188 m 1
 365.694335938 698.772460938 l 1
 293.465820312 698.772460938 l 1
 293.465820312 722.682617188 l 1
 365.694335938 722.682617188 l 1
365.694335938 722.682617188 m 1
 397.716796875 722.682617188 l 1
 397.716796875 217.646484375 l 2
 397.716796875 85.59765625 331.142578125 -7.8623046875 206.0625 -7.8623046875 c 0
 119.90234375 -7.8623046875 63.08984375 36.8837890625 42.900390625 120.64453125 c 1
 56.7216796875 140.155273438 l 1
 70.9052734375 59.6142578125 124.282226562 14.8154296875 206.0625 14.8154296875 c 0
 313.987304688 14.8154296875 365.694335938 101.017578125 365.694335938 217.646484375 c 2
 365.694335938 722.682617188 l 1
EndSplineSet
EndChar

StartChar: K
Encoding: 75 75 43
Width: 585
Flags: HW
LayerCount: 2
Fore
SplineSet
98.744140625 722.682617188 m 1
 130.766601562 722.682617188 l 1
 130.766601562 0.392578125 l 1
 98.744140625 0.392578125 l 1
 98.744140625 722.682617188 l 1
493.181640625 722.682617188 m 1
 526.211914062 722.682617188 l 1
 162.788085938 361.538085938 l 1
 526.211914062 0.392578125 l 1
 493.181640625 0.392578125 l 1
 130.766601562 361.538085938 l 1
 493.181640625 722.682617188 l 1
EndSplineSet
EndChar

StartChar: L
Encoding: 76 76 44
Width: 524
Flags: HW
LayerCount: 2
Fore
SplineSet
98.744140625 722.682617188 m 1
 98.744140625 698.772460938 l 1
 26.515625 698.772460938 l 1
 26.515625 722.682617188 l 1
 98.744140625 722.682617188 l 1
130.766601562 722.682617188 m 1
 202.995117188 722.682617188 l 1
 202.995117188 698.772460938 l 1
 130.766601562 698.772460938 l 1
 130.766601562 722.682617188 l 1
98.744140625 0.392578125 m 1
 26.515625 0.392578125 l 1
 26.515625 24.3037109375 l 1
 98.744140625 24.3037109375 l 1
 98.744140625 0.392578125 l 1
494.602539062 24.3037109375 m 1
 470.69140625 24.3037109375 l 1
 470.69140625 96.5322265625 l 1
 494.602539062 96.5322265625 l 1
 494.602539062 24.3037109375 l 1
98.744140625 722.682617188 m 1
 130.766601562 722.682617188 l 1
 130.766601562 0.392578125 l 1
 98.744140625 0.392578125 l 1
 98.744140625 722.682617188 l 1
114.754882812 0.392578125 m 1
 114.754882812 24.3037109375 l 1
 494.602539062 24.3037109375 l 1
 494.602539062 0.392578125 l 1
 114.754882812 0.392578125 l 1
EndSplineSet
EndChar

StartChar: M
Encoding: 77 77 45
Width: 756
Flags: HW
LayerCount: 2
Fore
SplineSet
98.744140625 722.682617188 m 1
 130.766601562 722.682617188 l 1
 130.766601562 0.392578125 l 1
 98.744140625 0.392578125 l 1
 98.744140625 722.682617188 l 1
644.724609375 722.682617188 m 1
 676.747070312 722.682617188 l 1
 676.747070312 0.392578125 l 1
 644.724609375 0.392578125 l 1
 644.724609375 722.682617188 l 1
106.85546875 722.682617188 m 1
 130.766601562 722.682617188 l 1
 399.701171875 180.626953125 l 1
 375.790039062 180.626953125 l 1
 106.85546875 722.682617188 l 1
644.724609375 722.682617188 m 1
 668.635742188 722.682617188 l 1
 399.701171875 180.626953125 l 1
 375.790039062 180.626953125 l 1
 644.724609375 722.682617188 l 1
EndSplineSet
EndChar

StartChar: N
Encoding: 78 78 46
Width: 645
Flags: HW
LayerCount: 2
Fore
SplineSet
98.744140625 722.682617188 m 1
 98.744140625 698.772460938 l 1
 26.515625 698.772460938 l 1
 26.515625 722.682617188 l 1
 98.744140625 722.682617188 l 1
563.067382812 722.682617188 m 1
 635.295898438 722.682617188 l 1
 635.295898438 698.772460938 l 1
 563.067382812 698.772460938 l 1
 563.067382812 722.682617188 l 1
98.744140625 0.392578125 m 1
 26.515625 0.392578125 l 1
 26.515625 24.3037109375 l 1
 98.744140625 24.3037109375 l 1
 98.744140625 0.392578125 l 1
563.067382812 0.392578125 m 1
 563.067382812 24.3037109375 l 1
 635.295898438 24.3037109375 l 1
 635.295898438 0.392578125 l 1
 563.067382812 0.392578125 l 1
98.744140625 722.682617188 m 1
 130.766601562 722.682617188 l 1
 130.766601562 0.392578125 l 1
 98.744140625 0.392578125 l 1
 98.744140625 722.682617188 l 1
531.044921875 722.682617188 m 1
 563.067382812 722.682617188 l 1
 563.067382812 0.392578125 l 1
 531.044921875 0.392578125 l 1
 531.044921875 722.682617188 l 1
98.744140625 722.682617188 m 1
 130.766601562 722.682617188 l 1
 554.956054688 0.392578125 l 1
 531.044921875 0.392578125 l 1
 98.744140625 722.682617188 l 1
EndSplineSet
EndChar

StartChar: O
Encoding: 79 79 47
Width: 666
Flags: HW
LayerCount: 2
Fore
SplineSet
341.240234375 730.9375 m 1
 532.821289062 730.9375 617.223632812 571.583007812 617.223632812 361.538085938 c 0
 617.223632812 151.493164062 532.822265625 -7.8623046875 341.240234375 -7.8623046875 c 0
 149.659179688 -7.8623046875 65.2568359375 151.493164062 65.2568359375 361.538085938 c 0
 65.2568359375 571.583007812 149.659179688 730.9375 341.240234375 730.9375 c 1
 341.240234375 707.02734375 l 1
 166.557617188 707.02734375 97.279296875 555.791992188 97.279296875 361.538085938 c 0
 97.279296875 167.283203125 166.557617188 16.048828125 341.240234375 16.048828125 c 0
 515.923828125 16.048828125 585.201171875 167.283203125 585.201171875 361.538085938 c 0
 585.201171875 555.791992188 515.923828125 707.02734375 341.240234375 707.02734375 c 1
 341.240234375 730.9375 l 1
EndSplineSet
EndChar

StartChar: P
Encoding: 80 80 48
Width: 605
Flags: HW
LayerCount: 2
Fore
SplineSet
98.744140625 722.682617188 m 1
 98.744140625 698.772460938 l 1
 26.515625 698.772460938 l 1
 26.515625 722.682617188 l 1
 98.744140625 722.682617188 l 1
98.744140625 0.392578125 m 1
 26.515625 0.392578125 l 1
 26.515625 24.3037109375 l 1
 98.744140625 24.3037109375 l 1
 98.744140625 0.392578125 l 1
130.766601562 0.392578125 m 1
 130.766601562 24.3037109375 l 1
 202.995117188 24.3037109375 l 1
 202.995117188 0.392578125 l 1
 130.766601562 0.392578125 l 1
98.744140625 722.682617188 m 1
 130.766601562 722.682617188 l 1
 130.766601562 0.392578125 l 1
 98.744140625 0.392578125 l 1
 98.744140625 722.682617188 l 1
114.754882812 722.682617188 m 1
 340.854492188 722.682617188 l 2
 472.986328125 722.682617188 555.216796875 638.16796875 555.216796875 505.4296875 c 0
 555.216796875 372.69140625 472.986328125 288.17578125 340.854492188 288.17578125 c 2
 114.754882812 288.17578125 l 1
 114.754882812 312.0859375 l 1
 340.854492188 312.0859375 l 2
 455.040039062 312.0859375 523.194335938 388.942382812 523.194335938 505.4296875 c 0
 523.194335938 621.916015625 455.040039062 698.772460938 340.854492188 698.772460938 c 2
 114.754882812 698.772460938 l 1
 114.754882812 722.682617188 l 1
EndSplineSet
EndChar

StartChar: Q
Encoding: 81 81 49
Width: 664
Flags: HW
LayerCount: 2
Fore
SplineSet
340.546875 731.078125 m 1
 531.739257812 731.078125 615.969726562 572.046875 615.969726562 362.428710938 c 0
 615.969726562 152.810546875 531.739257812 -6.220703125 340.546875 -6.220703125 c 0
 149.35546875 -6.220703125 65.125 152.810546875 65.125 362.428710938 c 0
 65.125 572.046875 149.35546875 731.078125 340.546875 731.078125 c 1
 340.546875 707.215820312 l 1
 166.21875 707.215820312 97.08203125 556.2890625 97.08203125 362.428710938 c 0
 97.08203125 168.569335938 166.21875 17.6416015625 340.546875 17.6416015625 c 0
 514.875 17.6416015625 584.012695312 168.569335938 584.012695312 362.428710938 c 0
 584.012695312 556.2890625 514.875 707.215820312 340.546875 707.215820312 c 1
 340.546875 731.078125 l 1
356.525390625 2.017578125 m 1
 356.525390625 -86.0302734375 400.572265625 -171.831054688 479.833984375 -171.831054688 c 2
 599.991210938 -171.831054688 l 1
 599.991210938 -195.693359375 l 1
 479.833984375 -195.693359375 l 2
 385.258789062 -195.693359375 324.568359375 -100.248046875 324.568359375 2.017578125 c 1
 356.525390625 2.017578125 l 1
EndSplineSet
EndChar

StartChar: R
Encoding: 82 82 50
Width: 605
Flags: HW
LayerCount: 2
Fore
SplineSet
98.744140625 722.682617188 m 1
 98.744140625 698.772460938 l 1
 26.515625 698.772460938 l 1
 26.515625 722.682617188 l 1
 98.744140625 722.682617188 l 1
98.744140625 0.392578125 m 1
 26.515625 0.392578125 l 1
 26.515625 24.3037109375 l 1
 98.744140625 24.3037109375 l 1
 98.744140625 0.392578125 l 1
98.744140625 722.682617188 m 1
 130.766601562 722.682617188 l 1
 130.766601562 0.392578125 l 1
 98.744140625 0.392578125 l 1
 98.744140625 722.682617188 l 1
114.754882812 722.682617188 m 1
 341.2421875 722.682617188 l 2
 473.204101562 722.682617188 555.216796875 638.123046875 555.216796875 505.485351562 c 0
 555.216796875 372.84765625 473.204101562 288.2890625 341.2421875 288.2890625 c 2
 114.754882812 288.2890625 l 1
 114.754882812 312.19921875 l 1
 341.2421875 312.19921875 l 2
 455.260742188 312.19921875 523.194335938 389.096679688 523.194335938 505.485351562 c 0
 523.194335938 621.875 455.260742188 698.772460938 341.2421875 698.772460938 c 2
 114.754882812 698.772460938 l 1
 114.754882812 722.682617188 l 1
357.252929688 300.244140625 m 1
 555.216796875 0.392578125 l 1
 523.194335938 0.392578125 l 1
 325.231445312 300.244140625 l 1
 357.252929688 300.244140625 l 1
EndSplineSet
EndChar

StartChar: S
Encoding: 83 83 51
Width: 585
Flags: HW
LayerCount: 2
Fore
SplineSet
540.127929688 622.975585938 m 1
 540.127929688 519.791015625 l 1
 516.217773438 519.791015625 l 1
 516.217773438 622.975585938 l 1
 540.127929688 622.975585938 l 1
64.2412109375 100.100585938 m 1
 64.2412109375 203.28515625 l 1
 88.1513671875 203.28515625 l 1
 88.1513671875 100.100585938 l 1
 64.2412109375 100.100585938 l 1
305.893554688 730.9375 m 0
 396.00390625 730.9375 481.596679688 691.486328125 540.127929688 622.975585938 c 1
 526.306640625 603.463867188 l 1
 471.912109375 669.072265625 391.118164062 707.038085938 305.893554688 707.038085938 c 0
 187.377929688 707.038085938 97.279296875 658.758789062 97.279296875 550.54296875 c 0
 97.279296875 462.831054688 156.78125 415.934570312 245.176757812 394.047851562 c 2
 361.549804688 365.233398438 l 2
 466.26171875 339.307617188 534.548828125 281.150390625 534.548828125 176.666015625 c 0
 534.548828125 50.28515625 431.494140625 -7.8623046875 293.912109375 -7.8623046875 c 0
 205.099609375 -7.8623046875 120.907226562 31.71484375 64.2412109375 100.100585938 c 1
 78.0615234375 119.611328125 l 1
 130.583007812 54.142578125 209.979492188 16.048828125 293.912109375 16.048828125 c 0
 413.2890625 16.048828125 502.526367188 66.8857421875 502.526367188 176.666015625 c 0
 502.526367188 265.786132812 444.005859375 315.153320312 354.62890625 337.283203125 c 2
 238.255859375 366.096679688 l 2
 134.528320312 391.779296875 65.2568359375 447.47265625 65.2568359375 550.54296875 c 0
 65.2568359375 675.544921875 168.96875 730.9375 305.893554688 730.9375 c 0
EndSplineSet
EndChar

StartChar: T
Encoding: 84 84 52
Width: 615
Flags: HW
LayerCount: 2
Fore
SplineSet
63.24609375 698.772460938 m 1
 87.1572265625 698.772460938 l 1
 87.1572265625 626.543945312 l 1
 63.24609375 626.543945312 l 1
 63.24609375 698.772460938 l 1
567.5625 698.772460938 m 1
 567.5625 626.543945312 l 1
 543.651367188 626.543945312 l 1
 543.651367188 698.772460938 l 1
 567.5625 698.772460938 l 1
299.393554688 0.392578125 m 1
 227.1640625 0.392578125 l 1
 227.1640625 24.3037109375 l 1
 299.393554688 24.3037109375 l 1
 299.393554688 0.392578125 l 1
331.415039062 0.392578125 m 1
 331.415039062 24.3037109375 l 1
 403.64453125 24.3037109375 l 1
 403.64453125 0.392578125 l 1
 331.415039062 0.392578125 l 1
63.24609375 698.772460938 m 1
 63.24609375 722.682617188 l 1
 567.5625 722.682617188 l 1
 567.5625 698.772460938 l 1
 63.24609375 698.772460938 l 1
299.393554688 710.727539062 m 1
 331.415039062 710.727539062 l 1
 331.415039062 0.392578125 l 1
 299.393554688 0.392578125 l 1
 299.393554688 710.727539062 l 1
EndSplineSet
EndChar

StartChar: U
Encoding: 85 85 53
Width: 640
Flags: HW
LayerCount: 2
Fore
SplineSet
98.744140625 722.682617188 m 1
 98.744140625 698.772460938 l 1
 26.515625 698.772460938 l 1
 26.515625 722.682617188 l 1
 98.744140625 722.682617188 l 1
130.766601562 722.682617188 m 1
 202.995117188 722.682617188 l 1
 202.995117188 698.772460938 l 1
 130.766601562 698.772460938 l 1
 130.766601562 722.682617188 l 1
531.65625 722.682617188 m 1
 531.65625 698.772460938 l 1
 459.426757812 698.772460938 l 1
 459.426757812 722.682617188 l 1
 531.65625 722.682617188 l 1
557.901367188 722.682617188 m 1
 630.129882812 722.682617188 l 1
 630.129882812 698.772460938 l 1
 557.901367188 698.772460938 l 1
 557.901367188 722.682617188 l 1
98.744140625 722.682617188 m 1
 130.766601562 722.682617188 l 1
 130.766601562 229.971679688 l 2
 130.766601562 101.875976562 203.643554688 16.048828125 328.323242188 16.048828125 c 0
 455.295898438 16.048828125 531.65625 100.782226562 531.65625 229.971679688 c 2
 531.65625 722.682617188 l 1
 557.901367188 722.682617188 l 1
 557.901367188 229.971679688 l 2
 557.901367188 85.662109375 470.903320312 -7.8623046875 328.323242188 -7.8623046875 c 0
 185.7421875 -7.8623046875 98.744140625 85.662109375 98.744140625 229.971679688 c 2
 98.744140625 722.682617188 l 1
EndSplineSet
EndChar

StartChar: V
Encoding: 86 86 54
Width: 661
Flags: HW
LayerCount: 2
Fore
SplineSet
49.4736328125 722.682617188 m 1
 81.4951171875 722.682617188 l 1
 351.365234375 0.392578125 l 1
 322.645507812 0.392578125 l 1
 49.4736328125 722.682617188 l 1
601.594726562 722.682617188 m 1
 627.840820312 722.682617188 l 1
 354.66796875 0.392578125 l 1
 325.948242188 0.392578125 l 1
 601.594726562 722.682617188 l 1
EndSplineSet
EndChar

StartChar: W
Encoding: 87 87 55
Width: 827
Flags: HW
LayerCount: 2
Fore
SplineSet
49.4736328125 722.682617188 m 1
 81.4453125 722.682617188 l 1
 180.216796875 359.278320312 l 1
 274.5078125 0.392578125 l 1
 245.788085938 0.392578125 l 1
 148.245117188 359.278320312 l 1
 49.4736328125 722.682617188 l 1
249.041015625 0.392578125 m 1
 326.606445312 360.4140625 l 1
 327.111328125 362.662109375 l 1
 407.9296875 722.682617188 l 1
 436.649414062 722.682617188 l 1
 359.083984375 362.662109375 l 1
 358.579101562 360.4140625 l 1
 277.760742188 0.392578125 l 1
 249.041015625 0.392578125 l 1
411.181640625 722.682617188 m 1
 439.90234375 722.682617188 l 1
 520.719726562 362.662109375 l 1
 521.224609375 360.4140625 l 1
 598.791015625 0.392578125 l 1
 570.071289062 0.392578125 l 1
 489.252929688 360.4140625 l 1
 488.748046875 362.662109375 l 1
 411.181640625 722.682617188 l 1
573.323242188 0.392578125 m 1
 667.922851562 360.4140625 l 1
 766.385742188 722.682617188 l 1
 798.358398438 722.682617188 l 1
 699.895507812 360.4140625 l 1
 602.04296875 0.392578125 l 1
 573.323242188 0.392578125 l 1
EndSplineSet
EndChar

StartChar: X
Encoding: 88 88 56
Width: 666
Flags: HW
LayerCount: 2
Fore
SplineSet
41.0888671875 722.682617188 m 1
 76.4599609375 722.682617188 l 1
 357.251953125 361.538085938 l 1
 641.392578125 0.392578125 l 1
 606.020507812 0.392578125 l 1
 325.229492188 361.538085938 l 1
 41.0888671875 722.682617188 l 1
615.146484375 722.682617188 m 1
 641.392578125 722.682617188 l 1
 354.36328125 361.538085938 l 1
 67.333984375 0.392578125 l 1
 41.0888671875 0.392578125 l 1
 328.118164062 361.538085938 l 1
 615.146484375 722.682617188 l 1
EndSplineSet
EndChar

StartChar: Y
Encoding: 89 89 57
Width: 595
Flags: HW
LayerCount: 2
Fore
SplineSet
87.3564453125 722.682617188 m 1
 87.3564453125 698.772460938 l 1
 15.1279296875 698.772460938 l 1
 15.1279296875 722.682617188 l 1
 87.3564453125 722.682617188 l 1
103.3671875 722.682617188 m 1
 175.595703125 722.682617188 l 1
 175.595703125 698.772460938 l 1
 103.3671875 698.772460938 l 1
 103.3671875 722.682617188 l 1
550.515625 722.682617188 m 1
 550.515625 698.772460938 l 1
 478.287109375 698.772460938 l 1
 478.287109375 722.682617188 l 1
 550.515625 722.682617188 l 1
566.526367188 722.682617188 m 1
 638.754882812 722.682617188 l 1
 638.754882812 698.772460938 l 1
 566.526367188 698.772460938 l 1
 566.526367188 722.682617188 l 1
310.930664062 0.392578125 m 1
 238.701171875 0.392578125 l 1
 238.701171875 24.3037109375 l 1
 310.930664062 24.3037109375 l 1
 310.930664062 0.392578125 l 1
342.952148438 0.392578125 m 1
 342.952148438 24.3037109375 l 1
 415.180664062 24.3037109375 l 1
 415.180664062 0.392578125 l 1
 342.952148438 0.392578125 l 1
71.3447265625 722.682617188 m 1
 103.3671875 722.682617188 l 1
 339.650390625 325.420898438 l 1
 310.930664062 325.420898438 l 1
 71.3447265625 722.682617188 l 1
550.515625 722.682617188 m 1
 582.538085938 722.682617188 l 1
 342.952148438 325.420898438 l 1
 314.232421875 325.420898438 l 1
 550.515625 722.682617188 l 1
310.930664062 325.420898438 m 1
 342.952148438 325.420898438 l 1
 342.952148438 0.392578125 l 1
 310.930664062 0.392578125 l 1
 310.930664062 325.420898438 l 1
EndSplineSet
EndChar

StartChar: Z
Encoding: 90 90 58
Width: 605
Flags: HW
LayerCount: 2
Fore
SplineSet
98.744140625 698.772460938 m 1
 122.654296875 698.772460938 l 1
 122.654296875 626.543945312 l 1
 98.744140625 626.543945312 l 1
 98.744140625 698.772460938 l 1
521.729492188 24.3037109375 m 1
 497.819335938 24.3037109375 l 1
 497.819335938 96.5322265625 l 1
 521.729492188 96.5322265625 l 1
 521.729492188 24.3037109375 l 1
98.744140625 698.772460938 m 1
 98.744140625 722.682617188 l 1
 521.729492188 722.682617188 l 1
 521.729492188 698.772460938 l 1
 98.744140625 698.772460938 l 1
98.744140625 0.392578125 m 1
 98.744140625 24.3037109375 l 1
 521.729492188 24.3037109375 l 1
 521.729492188 0.392578125 l 1
 98.744140625 0.392578125 l 1
506.8125 723.40234375 m 1
 521.729492188 698.772460938 l 1
 113.661132812 -0.326171875 l 1
 98.744140625 24.3037109375 l 1
 506.8125 723.40234375 l 1
EndSplineSet
EndChar

StartChar: bracketleft
Encoding: 91 91 59
Width: 382
Flags: HW
LayerCount: 2
Fore
SplineSet
93.6494140625 772.936523438 m 1
 124.01953125 772.936523438 l 1
 124.01953125 -107.806640625 l 1
 93.6494140625 -107.806640625 l 1
 93.6494140625 772.936523438 l 1
124.01953125 750.259765625 m 1
 124.01953125 772.936523438 l 1
 298.78515625 772.936523438 l 1
 298.78515625 750.259765625 l 1
 124.01953125 750.259765625 l 1
124.01953125 -107.806640625 m 1
 124.01953125 -85.1298828125 l 1
 298.78515625 -85.1298828125 l 1
 298.78515625 -107.806640625 l 1
 124.01953125 -107.806640625 l 1
EndSplineSet
EndChar

StartChar: backslash
Encoding: 92 92 60
Width: 418
Flags: HW
LayerCount: 2
Fore
SplineSet
41.0888671875 730.9375 m 1
 73.1103515625 730.9375 l 1
 388.196289062 -7.8623046875 l 1
 356.173828125 -7.8623046875 l 1
 41.0888671875 730.9375 l 1
EndSplineSet
EndChar

StartChar: bracketright
Encoding: 93 93 61
Width: 382
Flags: HW
LayerCount: 2
Fore
SplineSet
268.415039062 772.936523438 m 1
 298.78515625 772.936523438 l 1
 298.78515625 -107.806640625 l 1
 268.415039062 -107.806640625 l 1
 268.415039062 772.936523438 l 1
268.415039062 750.259765625 m 1
 93.6494140625 750.259765625 l 1
 93.6494140625 772.936523438 l 1
 268.415039062 772.936523438 l 1
 268.415039062 750.259765625 l 1
268.415039062 -107.806640625 m 1
 93.6494140625 -107.806640625 l 1
 93.6494140625 -85.1298828125 l 1
 268.415039062 -85.1298828125 l 1
 268.415039062 -107.806640625 l 1
EndSplineSet
EndChar

StartChar: asciicircum
Encoding: 94 94 62
Width: 481
Flags: HW
LayerCount: 2
Fore
SplineSet
62.2451171875 657.291015625 m 1
 233.204101562 774.1484375 l 1
 260.057617188 774.1484375 l 1
 431.016601562 657.291015625 l 1
 417.58984375 638.856445312 l 1
 246.630859375 755.713867188 l 1
 246.630859375 755.713867188 l 1
 75.6728515625 638.856445312 l 1
 62.2451171875 657.291015625 l 1
EndSplineSet
EndChar

StartChar: underscore
Encoding: 95 95 63
Width: 534
Flags: HW
LayerCount: 2
Fore
SplineSet
98.744140625 0.392578125 m 1
 449.389648438 0.392578125 l 1
 449.389648438 -23.517578125 l 1
 98.744140625 -23.517578125 l 1
 98.744140625 0.392578125 l 1
EndSplineSet
EndChar

StartChar: grave
Encoding: 96 96 64
Width: 270
Flags: HW
LayerCount: 2
Fore
SplineSet
123.106445312 800 m 1
 154.321289062 800 l 1
 168.368164062 598.834960938 l 1
 140.274414062 598.834960938 l 1
 123.106445312 800 l 1
EndSplineSet
EndChar

StartChar: a
Encoding: 97 97 65
Width: 534
Flags: HW
LayerCount: 2
Fore
SplineSet
87.4013671875 464.169921875 m 1
 137.578125 521.396484375 190.120117188 545.206054688 266.227539062 545.206054688 c 0
 383.716796875 545.206054688 449.389648438 460.817382812 449.389648438 338.426757812 c 2
 449.389648438 32.138671875 l 1
 531.775390625 32.138671875 l 1
 531.775390625 16.265625 l 2
 531.766601562 16.2646484375 422.373046875 0.39453125 422.364257812 0.392578125 c 1
 417.416992188 101.057617188 l 1
 417.416992188 338.426757812 l 2
 417.416992188 447.459960938 361.155273438 523.91796875 257.37890625 523.91796875 c 0
 205.055664062 523.91796875 155.05859375 502.295898438 119.223632812 464.169921875 c 1
 119.223632812 381.138671875 l 1
 103.3125 381.138671875 l 1
 87.4013671875 464.169921875 l 1
449.389648438 306.654296875 m 1
 449.389648438 285.174804688 l 1
 243.594726562 285.174804688 l 2
 155.837890625 285.174804688 97.2294921875 234.94140625 97.2294921875 149.395507812 c 0
 97.2294921875 63.9638671875 155.538085938 13.6171875 243.073242188 13.6171875 c 0
 317.860351562 13.6171875 385.86328125 56.9775390625 417.416992188 124.78125 c 1
 417.416992188 101.057617188 l 1
 378.4453125 33.6513671875 306.4921875 -7.8623046875 228.630859375 -7.8623046875 c 0
 129.587890625 -7.8623046875 65.2568359375 51.6337890625 65.2568359375 149.395507812 c 0
 65.2568359375 252.646484375 143.380859375 306.654296875 252.856445312 306.654296875 c 2
 449.389648438 306.654296875 l 1
EndSplineSet
EndChar

StartChar: b
Encoding: 98 98 66
Width: 589
Flags: HW
LayerCount: 2
Fore
SplineSet
114.126953125 730.9375 m 1
 114.126953125 730.9375 l 1
 114.126953125 144.848632812 l 1
 114.126953125 125.870117188 l 1
 109.274414062 0.392578125 l 1
 82.10546875 0.392578125 l 1
 82.10546875 707.213867188 l 1
 8.36328125 707.213867188 l 1
 8.36328125 719.076171875 l 1
 114.126953125 730.9375 l 1
103.157226562 435.231445312 m 1
 146.76953125 503.729492188 222.348632812 545.206054688 303.551757812 545.206054688 c 0
 456.974609375 545.206054688 538.681640625 430.618164062 538.681640625 268.671875 c 0
 538.681640625 106.725585938 456.974609375 -7.8623046875 303.551757812 -7.8623046875 c 0
 218.47265625 -7.8623046875 142.606445312 45.6982421875 114.126953125 125.870117188 c 1
 114.126953125 144.848632812 l 1
 141.8515625 64.80078125 217.256835938 11.1171875 301.969726562 11.1171875 c 0
 439.705078125 11.1171875 506.659179688 120.250976562 506.659179688 268.671875 c 0
 506.659179688 417.092773438 439.705078125 526.2265625 301.969726562 526.2265625 c 0
 224.989257812 526.2265625 153.665039062 485.794921875 114.126953125 419.744140625 c 1
 103.157226562 435.231445312 l 1
EndSplineSet
EndChar

StartChar: c
Encoding: 99 99 67
Width: 509
Flags: HW
LayerCount: 2
Fore
SplineSet
457.0390625 455.635742188 m 1
 445.083984375 352.451171875 l 1
 433.12890625 352.451171875 l 1
 433.12890625 455.635742188 l 1
 433.12890625 407.544921875 l 1
 433.12890625 488.728515625 366.916992188 526.06640625 278.53125 526.06640625 c 0
 148.53125 526.06640625 97.2392578125 413.323242188 97.2392578125 268.671875 c 0
 97.2392578125 124.055664062 148.559570312 11.3583984375 278.537109375 11.3583984375 c 0
 344.9375 11.3583984375 407.282226562 43.3017578125 446.069335938 97.1953125 c 1
 457.0390625 81.7080078125 l 1
 414.359375 25.2919921875 347.706054688 -7.8623046875 276.963867188 -7.8623046875 c 0
 131.84765625 -7.8623046875 65.2568359375 110.62109375 65.2568359375 268.671875 c 0
 65.2568359375 426.72265625 131.84765625 545.206054688 276.963867188 545.206054688 c 0
 355.56640625 545.206054688 409.616210938 518.321289062 457.0390625 455.635742188 c 1
EndSplineSet
EndChar

StartChar: d
Encoding: 100 100 68
Width: 589
Flags: HW
LayerCount: 2
Fore
SplineSet
521.833984375 730.9375 m 1
 521.833984375 144.848632812 l 1
 521.833984375 0.392578125 l 1
 494.665039062 0.392578125 l 1
 489.811523438 125.870117188 l 1
 489.811523438 707.213867188 l 1
 416.069335938 707.213867188 l 1
 416.069335938 719.076171875 l 1
 521.833984375 730.9375 l 1
500.782226562 435.231445312 m 1
 489.811523438 419.744140625 l 1
 450.2734375 485.794921875 378.950195312 526.2265625 301.969726562 526.2265625 c 0
 164.233398438 526.2265625 97.279296875 417.092773438 97.279296875 268.671875 c 0
 97.279296875 120.250976562 164.233398438 11.1171875 301.969726562 11.1171875 c 0
 386.681640625 11.1171875 462.087890625 64.80078125 489.811523438 144.848632812 c 1
 489.811523438 125.870117188 l 1
 461.33203125 45.6982421875 385.465820312 -7.8623046875 300.38671875 -7.8623046875 c 0
 146.963867188 -7.8623046875 65.2568359375 106.725585938 65.2568359375 268.671875 c 0
 65.2568359375 430.618164062 146.963867188 545.206054688 300.38671875 545.206054688 c 0
 381.590820312 545.206054688 457.168945312 503.729492188 500.782226562 435.231445312 c 1
EndSplineSet
EndChar

StartChar: e
Encoding: 101 101 69
Width: 550
Flags: HW
LayerCount: 2
Fore
SplineSet
494.379882812 264.396484375 m 1
 466.404296875 264.396484375 l 1
 466.404296875 283.337890625 l 2
 466.404296875 420.198242188 416.4609375 526.263671875 293.083984375 526.263671875 c 0
 162.20703125 526.263671875 97.279296875 423.780273438 97.279296875 283.337890625 c 2
 97.279296875 273.8671875 l 1
 97.279296875 264.396484375 l 2
 97.279296875 119.331054688 159.9375 11.3125 293.627929688 11.3125 c 0
 356.848632812 11.3125 418.096679688 33.3251953125 466.852539062 73.5712890625 c 1
 477.80078125 58.1142578125 l 1
 425.696289062 15.4501953125 360.427734375 -7.8623046875 293.083984375 -7.8623046875 c 0
 141.037109375 -7.8623046875 65.2568359375 110.8671875 65.2568359375 273.8671875 c 0
 65.2568359375 432.2734375 143.608398438 545.206054688 293.083984375 545.206054688 c 0
 434.658203125 545.206054688 498.376953125 428.560546875 498.376953125 273.8671875 c 0
 498.376953125 269.903320312 497.219726562 267.161132812 494.379882812 264.396484375 c 1
65.2568359375 264.396484375 m 1
 65.2568359375 283.337890625 l 1
 498.376953125 283.337890625 l 1
 494.379882812 264.396484375 l 1
 65.2568359375 264.396484375 l 1
EndSplineSet
EndChar

StartChar: f
Encoding: 102 102 70
Width: 374
Flags: HW
LayerCount: 2
Fore
SplineSet
168.96875 0.392578125 m 1
 49.4736328125 0.392578125 l 1
 49.4736328125 13.28125 l 1
 168.96875 21.8720703125 l 1
 168.96875 0.392578125 l 1
200.991210938 0.392578125 m 1
 200.991210938 21.8720703125 l 1
 320.487304688 21.8720703125 l 1
 320.487304688 0.392578125 l 1
 200.991210938 0.392578125 l 1
168.96875 0.392578125 m 1
 168.96875 639.85546875 l 2
 168.96875 706.63671875 206.653320312 751.57421875 271.522460938 751.57421875 c 0
 287.321289062 751.57421875 303.053710938 749.534179688 318.330078125 745.505859375 c 1
 318.330078125 733.625 l 1
 273.102539062 733.625 l 2
 223.786132812 733.625 200.991210938 693.5 200.991210938 639.85546875 c 2
 200.991210938 0.392578125 l 1
 168.96875 0.392578125 l 1
49.4736328125 536.951171875 m 1
 318.330078125 536.951171875 l 1
 318.330078125 513.1171875 l 1
 49.4736328125 513.1171875 l 1
 49.4736328125 536.951171875 l 1
EndSplineSet
EndChar

StartChar: g
Encoding: 103 103 71
Width: 553
Flags: HW
LayerCount: 2
Fore
SplineSet
263.879882812 545.723632812 m 1
 379.561523438 545.723632812 462.635742188 489.639648438 462.635742188 380.90234375 c 0
 462.635742188 272.1640625 379.561523438 216.081054688 263.879882812 216.081054688 c 0
 148.198242188 216.081054688 65.125 272.1640625 65.125 380.90234375 c 0
 65.125 489.639648438 148.198242188 545.723632812 263.879882812 545.723632812 c 1
 263.879882812 526.8203125 l 1
 165.458007812 526.8203125 97.0322265625 474.990234375 97.0322265625 380.90234375 c 0
 97.0322265625 286.814453125 165.458007812 234.984375 263.879882812 234.984375 c 0
 362.301757812 234.984375 430.728515625 286.814453125 430.728515625 380.90234375 c 0
 430.728515625 474.990234375 362.301757812 526.8203125 263.879882812 526.8203125 c 1
 263.879882812 545.723632812 l 1
263.879882812 234.80078125 m 1
 263.879882812 216.081054688 l 1
 175.462890625 216.081054688 97.0166015625 210.98046875 97.0166015625 135.077148438 c 0
 97.0166015625 59.173828125 175.462890625 54.0732421875 263.879882812 54.0732421875 c 2
 375.46484375 54.0732421875 l 2
 451.51171875 54.0732421875 502.520507812 10.8984375 502.520507812 -63.0810546875 c 0
 502.520507812 -167.793945312 403.286132812 -195.693359375 283.33984375 -195.693359375 c 0
 182.35546875 -195.693359375 112.823242188 -167.380859375 40.5615234375 -96.837890625 c 1
 56.724609375 -87.505859375 l 1
 117.991210938 -145.017578125 198.866210938 -177.029296875 282.896484375 -177.029296875 c 0
 385.817382812 -177.029296875 470.61328125 -151.595703125 470.61328125 -61.517578125 c 0
 470.61328125 -7.43359375 431.204101562 22.291015625 374.592773438 22.291015625 c 2
 204.346679688 22.291015625 l 2
 124.828125 22.291015625 65.125 55.59765625 65.125 128.545898438 c 0
 65.125 220.516601562 157.139648438 234.80078125 263.879882812 234.80078125 c 1
526.640625 537.485351562 m 1
 526.640625 511.549804688 l 1
 376.577148438 511.549804688 l 1
 494.907226562 537.485351562 l 1
 526.640625 537.485351562 l 1
40.5615234375 -96.837890625 m 1
 188.18359375 31.6220703125 l 1
 204.346679688 22.291015625 l 1
 56.724609375 -106.169921875 l 1
 40.5615234375 -96.837890625 l 1
EndSplineSet
EndChar

StartChar: h
Encoding: 104 104 72
Width: 555
Flags: HW
LayerCount: 2
Fore
SplineSet
98.744140625 722.682617188 m 1
 130.766601562 722.682617188 l 1
 130.766601562 0.392578125 l 1
 98.744140625 0.392578125 l 1
 98.744140625 722.682617188 l 1
119.817382812 380.530273438 m 1
 144.322265625 487.591796875 216.61328125 545.206054688 326.443359375 545.206054688 c 0
 431.642578125 545.206054688 486.696289062 465.633789062 486.696289062 354.103515625 c 2
 486.696289062 0.392578125 l 1
 454.673828125 0.392578125 l 1
 454.673828125 354.103515625 l 2
 454.673828125 450.504882812 413.5390625 522.528320312 324.860351562 522.528320312 c 0
 220.654296875 522.528320312 152.254882812 467.041015625 130.766601562 365.07421875 c 1
 119.817382812 380.530273438 l 1
EndSplineSet
EndChar

StartChar: i
Encoding: 105 105 73
Width: 302
Flags: HW
LayerCount: 2
Fore
SplineSet
65.2568359375 513.040039062 m 1
 65.2568359375 536.951171875 l 1
 186.224609375 536.951171875 l 1
 186.224609375 513.040039062 l 1
 65.2568359375 513.040039062 l 1
170.213867188 536.951171875 m 1
 202.236328125 536.951171875 l 1
 202.236328125 0.392578125 l 1
 170.213867188 0.392578125 l 1
 170.213867188 536.951171875 l 1
206.188476562 691.727539062 m 0
 206.188476562 686.432617188 204.084960938 681.354492188 200.340820312 677.611328125 c 0
 196.59765625 673.8671875 191.51953125 671.763671875 186.224609375 671.763671875 c 0
 180.9296875 671.763671875 175.852539062 673.8671875 172.108398438 677.611328125 c 0
 168.365234375 681.354492188 166.260742188 686.432617188 166.260742188 691.727539062 c 0
 166.260742188 697.022460938 168.365234375 702.099609375 172.108398438 705.84375 c 0
 175.852539062 709.586914062 180.9296875 711.69140625 186.224609375 711.69140625 c 0
 191.51953125 711.69140625 196.59765625 709.586914062 200.340820312 705.84375 c 0
 204.084960938 702.099609375 206.188476562 697.022460938 206.188476562 691.727539062 c 0
EndSplineSet
EndChar

StartChar: j
Encoding: 106 106 74
Width: 271
Flags: HW
LayerCount: 2
Fore
SplineSet
136.005859375 537.485351562 m 1
 167.962890625 537.485351562 l 1
 167.962890625 2.017578125 l 2
 167.962890625 -101.318359375 170.439453125 -195.693359375 81.552734375 -195.693359375 c 2
 12.7529296875 -195.693359375 l 1
 12.7529296875 -171.831054688 l 1
 81.552734375 -171.831054688 l 2
 135.9921875 -171.831054688 136.005859375 -76.6533203125 136.005859375 2.017578125 c 2
 136.005859375 537.485351562 l 1
171.907226562 691.947265625 m 0
 171.907226562 686.663085938 169.80859375 681.595703125 166.072265625 677.859375 c 0
 162.3359375 674.123046875 157.268554688 672.0234375 151.984375 672.0234375 c 0
 146.700195312 672.0234375 141.6328125 674.123046875 137.896484375 677.859375 c 0
 134.16015625 681.595703125 132.061523438 686.663085938 132.061523438 691.947265625 c 0
 132.061523438 697.231445312 134.16015625 702.298828125 137.896484375 706.03515625 c 0
 141.6328125 709.771484375 146.700195312 711.870117188 151.984375 711.870117188 c 0
 157.268554688 711.870117188 162.3359375 709.771484375 166.072265625 706.03515625 c 0
 169.80859375 702.298828125 171.907226562 697.231445312 171.907226562 691.947265625 c 0
EndSplineSet
EndChar

StartChar: k
Encoding: 107 107 75
Width: 514
Flags: HW
LayerCount: 2
Fore
SplineSet
98.744140625 722.682617188 m 1
 130.766601562 722.682617188 l 1
 130.766601562 0.392578125 l 1
 98.744140625 0.392578125 l 1
 98.744140625 722.682617188 l 1
368.79296875 536.951171875 m 1
 430.579101562 536.951171875 l 1
 162.788085938 268.671875 l 1
 430.579101562 0.392578125 l 1
 368.79296875 0.392578125 l 1
 130.766601562 268.671875 l 1
 368.79296875 536.951171875 l 1
146.77734375 256.716796875 m 1
 114.754882812 256.716796875 l 1
 114.754882812 280.626953125 l 1
 146.77734375 280.626953125 l 1
 146.77734375 256.716796875 l 1
EndSplineSet
EndChar

StartChar: l
Encoding: 108 108 76
Width: 262
Flags: HW
LayerCount: 2
Fore
SplineSet
118.540039062 730.9375 m 1
 150.561523438 730.9375 l 1
 150.561523438 114.41015625 l 2
 150.561523438 63.07421875 171.577148438 24.3037109375 218.51953125 24.3037109375 c 2
 257.142578125 24.3037109375 l 1
 257.142578125 0.392578125 l 1
 218.51953125 0.392578125 l 2
 154.123046875 0.392578125 118.540039062 47.10546875 118.540039062 114.41015625 c 2
 118.540039062 730.9375 l 1
EndSplineSet
EndChar

StartChar: m
Encoding: 109 109 77
Width: 827
Flags: HW
LayerCount: 2
Fore
SplineSet
98.744140625 536.951171875 m 1
 130.766601562 536.951171875 l 1
 130.766601562 0.392578125 l 1
 98.744140625 0.392578125 l 1
 98.744140625 536.951171875 l 1
119.817382812 442.944335938 m 1
 157.001953125 506.293945312 224.9609375 545.206054688 298.41796875 545.206054688 c 0
 367.15234375 545.206054688 412.512695312 509.677734375 428.977539062 442.944335938 c 1
 466.162109375 506.293945312 534.122070312 545.206054688 607.578125 545.206054688 c 0
 706.276367188 545.206054688 749.087890625 462.567382812 749.087890625 354.103515625 c 2
 749.087890625 0.392578125 l 1
 717.065429688 0.392578125 l 1
 717.065429688 354.103515625 l 2
 717.065429688 447.619140625 688.848632812 522.528320312 605.99609375 522.528320312 c 0
 537.705078125 522.528320312 474.520507812 486.368164062 439.926757812 427.487304688 c 1
 439.926757812 354.103515625 l 1
 439.926757812 0.392578125 l 1
 407.904296875 0.392578125 l 1
 407.904296875 354.103515625 l 2
 407.904296875 447.619140625 379.688476562 522.528320312 296.834960938 522.528320312 c 0
 228.544921875 522.528320312 165.359375 486.368164062 130.766601562 427.487304688 c 1
 119.817382812 442.944335938 l 1
EndSplineSet
EndChar

StartChar: n
Encoding: 110 110 78
Width: 545
Flags: HW
LayerCount: 2
Fore
SplineSet
65.853515625 536.951171875 m 1
 97.8759765625 536.951171875 l 1
 97.8759765625 0.392578125 l 1
 65.853515625 0.392578125 l 1
 65.853515625 536.951171875 l 1
86.9267578125 441.797851562 m 1
 141.38671875 507.310546875 222.165039062 545.206054688 307.358398438 545.206054688 c 0
 416.020507812 545.206054688 476.844726562 467.252929688 476.844726562 354.103515625 c 2
 476.844726562 0.392578125 l 1
 444.822265625 0.392578125 l 1
 444.822265625 354.103515625 l 2
 444.822265625 452.026367188 397.694335938 522.528320312 305.775390625 522.528320312 c 0
 225.71875 522.528320312 149.702148438 487.358398438 97.8759765625 426.340820312 c 1
 86.9267578125 441.797851562 l 1
EndSplineSet
EndChar

StartChar: o
Encoding: 111 111 79
Width: 580
Flags: HW
LayerCount: 2
Fore
SplineSet
297.319335938 545.206054688 m 1
 448.616210938 545.206054688 529.380859375 432.405273438 529.380859375 272.799804688 c 0
 529.380859375 109.561523438 450.620117188 -7.8623046875 297.319335938 -7.8623046875 c 0
 144.018554688 -7.8623046875 65.2568359375 109.561523438 65.2568359375 272.799804688 c 0
 65.2568359375 432.405273438 146.022460938 545.206054688 297.319335938 545.206054688 c 1
 297.319335938 522.528320312 l 1
 163.217773438 522.528320312 97.279296875 416.96875 97.279296875 272.799804688 c 0
 97.279296875 124.943359375 161.079101562 14.8154296875 297.319335938 14.8154296875 c 0
 433.559570312 14.8154296875 497.359375 124.943359375 497.359375 272.799804688 c 0
 497.359375 416.96875 431.419921875 522.528320312 297.319335938 522.528320312 c 1
 297.319335938 545.206054688 l 1
EndSplineSet
EndChar

StartChar: p
Encoding: 112 112 80
Width: 588
Flags: HW
LayerCount: 2
Fore
SplineSet
87.1787109375 537.485351562 m 1
 87.1787109375 513.623046875 l 1
 15.0966796875 513.623046875 l 1
 15.0966796875 537.485351562 l 1
 87.1787109375 537.485351562 l 1
87.1787109375 -195.693359375 m 1
 15.0966796875 -195.693359375 l 1
 15.0966796875 -171.831054688 l 1
 87.1787109375 -171.831054688 l 1
 87.1787109375 -195.693359375 l 1
87.1787109375 537.485351562 m 1
 115.939453125 537.485351562 l 1
 119.135742188 430.393554688 l 1
 119.135742188 -195.693359375 l 1
 87.1787109375 -195.693359375 l 1
 87.1787109375 537.485351562 l 1
108.1875 435.97265625 m 1
 151.711914062 504.331054688 227.13671875 545.723632812 308.17578125 545.723632812 c 0
 461.286132812 545.723632812 542.827148438 431.369140625 542.827148438 269.751953125 c 0
 542.827148438 108.133789062 461.286132812 -6.220703125 308.17578125 -6.220703125 c 0
 225.142578125 -6.220703125 148.6171875 38.7333984375 108.1875 111.258789062 c 1
 119.135742188 126.713867188 l 1
 156.95703125 58.6337890625 228.715820312 16.4111328125 306.595703125 16.4111328125 c 0
 443.110351562 16.4111328125 510.870117188 123.275390625 510.870117188 269.751953125 c 0
 510.870117188 416.227539062 443.110351562 523.091796875 306.595703125 523.091796875 c 0
 230.708984375 523.091796875 160.05078125 484.428710938 119.135742188 420.516601562 c 1
 108.1875 435.97265625 l 1
EndSplineSet
EndChar

StartChar: q
Encoding: 113 113 81
Width: 588
Flags: HW
LayerCount: 2
Fore
SplineSet
492.01171875 537.485351562 m 1
 492.01171875 513.623046875 l 1
 419.9296875 513.623046875 l 1
 419.9296875 537.485351562 l 1
 492.01171875 537.485351562 l 1
488.81640625 -195.693359375 m 1
 416.734375 -195.693359375 l 1
 416.734375 -171.831054688 l 1
 488.81640625 -171.831054688 l 1
 488.81640625 -195.693359375 l 1
492.01171875 537.485351562 m 1
 520.7734375 537.485351562 l 1
 520.7734375 -195.693359375 l 1
 488.81640625 -195.693359375 l 1
 488.81640625 430.393554688 l 1
 492.01171875 537.485351562 l 1
499.764648438 435.97265625 m 1
 488.81640625 420.516601562 l 1
 447.900390625 484.428710938 377.243164062 523.091796875 301.35546875 523.091796875 c 0
 164.840820312 523.091796875 97.08203125 416.227539062 97.08203125 269.751953125 c 0
 97.08203125 123.275390625 164.840820312 16.4111328125 301.35546875 16.4111328125 c 0
 379.236328125 16.4111328125 450.994140625 58.6337890625 488.81640625 126.713867188 c 1
 499.764648438 111.258789062 l 1
 459.334960938 38.7333984375 382.809570312 -6.220703125 299.776367188 -6.220703125 c 0
 146.666015625 -6.220703125 65.125 108.133789062 65.125 269.751953125 c 0
 65.125 431.369140625 146.666015625 545.723632812 299.776367188 545.723632812 c 0
 380.815429688 545.723632812 456.240234375 504.331054688 499.764648438 435.97265625 c 1
EndSplineSet
EndChar

StartChar: r
Encoding: 114 114 82
Width: 363
Flags: HW
LayerCount: 2
Fore
SplineSet
98.744140625 536.951171875 m 1
 130.766601562 536.951171875 l 1
 130.766601562 0.392578125 l 1
 98.744140625 0.392578125 l 1
 98.744140625 536.951171875 l 1
118.37109375 443.34375 m 1
 197.864257812 499.654296875 256.08984375 545.206054688 353.640625 545.206054688 c 1
 353.640625 521.294921875 l 1
 261.409179688 521.294921875 205.934570312 479.090820312 130.766601562 425.844726562 c 1
 118.37109375 443.34375 l 1
EndSplineSet
EndChar

StartChar: s
Encoding: 115 115 83
Width: 474
Flags: HW
LayerCount: 2
Fore
SplineSet
437.467773438 473.630859375 m 1
 437.467773438 370.446289062 l 1
 413.556640625 370.446289062 l 1
 413.556640625 473.630859375 l 1
 437.467773438 473.630859375 l 1
64.31640625 71.9677734375 m 1
 64.31640625 175.15234375 l 1
 88.2265625 175.15234375 l 1
 88.2265625 71.9677734375 l 1
 64.31640625 71.9677734375 l 1
257.557617188 545.206054688 m 0
 324.46875 545.206054688 388.842773438 519.595703125 437.467773438 473.630859375 c 1
 423.66796875 454.149414062 l 1
 379.102539062 497.232421875 319.541992188 521.314453125 257.557617188 521.314453125 c 0
 167.666015625 521.314453125 97.2294921875 490.329101562 97.2294921875 409.7734375 c 0
 97.2294921875 347.920898438 137.703125 313.522460938 199.715820312 298.231445312 c 2
 293.302734375 275.154296875 l 2
 380.112304688 253.749023438 445.036132812 216.129882812 445.036132812 131.61328125 c 0
 445.036132812 25.9365234375 348.123046875 -7.8623046875 228.2890625 -7.8623046875 c 0
 164.268554688 -7.8623046875 103.803710938 21.5751953125 64.31640625 71.9677734375 c 1
 78.1162109375 91.44921875 l 1
 113.4453125 43.9931640625 169.126953125 16.029296875 228.2890625 16.029296875 c 0
 329.958984375 16.029296875 413.063476562 42.3955078125 413.063476562 131.61328125 c 0
 413.063476562 200.896484375 357.931640625 229.560546875 286.409179688 247.197265625 c 2
 192.821289062 270.274414062 l 2
 115.475585938 289.346679688 65.2568359375 332.555664062 65.2568359375 409.7734375 c 0
 65.2568359375 506.892578125 149.489257812 545.206054688 257.557617188 545.206054688 c 0
EndSplineSet
EndChar

StartChar: t
Encoding: 116 116 84
Width: 423
Flags: HW
LayerCount: 2
Fore
SplineSet
65.2568359375 513.040039062 m 1
 65.2568359375 536.951171875 l 1
 369.1953125 536.951171875 l 1
 369.1953125 513.040039062 l 1
 65.2568359375 513.040039062 l 1
183.85546875 669.0234375 m 1
 215.877929688 722.682617188 l 1
 215.877929688 102.754882812 l 2
 215.877929688 49.7138671875 248.834960938 16.0107421875 301.677734375 16.0107421875 c 2
 369.142578125 16.0107421875 l 1
 369.166992188 -6.666015625 l 1
 343.887695312 -7.5517578125 326.182617188 -7.8623046875 300.887695312 -7.8623046875 c 0
 230.331054688 -7.8623046875 183.85546875 33.5390625 183.85546875 102.754882812 c 2
 183.85546875 669.0234375 l 1
EndSplineSet
EndChar

StartChar: u
Encoding: 117 117 85
Width: 545
Flags: HW
LayerCount: 2
Fore
SplineSet
461.07421875 536.951171875 m 1
 493.096679688 536.951171875 l 1
 493.096679688 0.392578125 l 1
 461.07421875 0.392578125 l 1
 461.07421875 536.951171875 l 1
65.853515625 536.951171875 m 1
 97.8759765625 536.951171875 l 1
 97.8759765625 183.240234375 l 2
 97.8759765625 84.1953125 149.114257812 14.8154296875 243.435546875 14.8154296875 c 0
 339.147460938 14.8154296875 425.26953125 72.9404296875 461.07421875 161.704101562 c 1
 472.044921875 146.216796875 l 1
 433.6015625 52.9775390625 342.708984375 -7.8623046875 241.85546875 -7.8623046875 c 0
 130.665039062 -7.8623046875 65.853515625 68.8984375 65.853515625 183.240234375 c 2
 65.853515625 536.951171875 l 1
EndSplineSet
EndChar

StartChar: v
Encoding: 118 118 86
Width: 560
Flags: HW
LayerCount: 2
Fore
SplineSet
514.344726562 536.951171875 m 1
 514.344726562 513.040039062 l 1
 442.116210938 513.040039062 l 1
 442.116210938 536.951171875 l 1
 514.344726562 536.951171875 l 1
530.356445312 536.951171875 m 1
 602.584960938 536.951171875 l 1
 602.584960938 513.040039062 l 1
 530.356445312 513.040039062 l 1
 530.356445312 536.951171875 l 1
87.3564453125 536.951171875 m 1
 87.3564453125 513.040039062 l 1
 15.1279296875 513.040039062 l 1
 15.1279296875 536.951171875 l 1
 87.3564453125 536.951171875 l 1
103.3671875 536.951171875 m 1
 175.595703125 536.951171875 l 1
 175.595703125 513.040039062 l 1
 103.3671875 513.040039062 l 1
 103.3671875 536.951171875 l 1
71.3447265625 536.951171875 m 1
 103.3671875 536.951171875 l 1
 321.564453125 0.392578125 l 1
 292.844726562 0.392578125 l 1
 71.3447265625 536.951171875 l 1
514.344726562 536.951171875 m 1
 546.3671875 536.951171875 l 1
 324.8671875 0.392578125 l 1
 296.147460938 0.392578125 l 1
 514.344726562 536.951171875 l 1
EndSplineSet
EndChar

StartChar: w
Encoding: 119 119 87
Width: 756
Flags: HW
LayerCount: 2
Fore
SplineSet
49.4736328125 536.951171875 m 1
 81.4951171875 536.951171875 l 1
 169.913085938 266.993164062 l 1
 253.927734375 0.392578125 l 1
 225.208007812 0.392578125 l 1
 137.890625 266.993164062 l 1
 49.4736328125 536.951171875 l 1
228.510742188 0.392578125 m 1
 299.043945312 270.767578125 l 1
 297.899414062 266.576171875 l 1
 371.734375 536.951171875 l 1
 400.454101562 536.951171875 l 1
 329.920898438 266.576171875 l 1
 331.06640625 270.767578125 l 1
 257.23046875 0.392578125 l 1
 228.510742188 0.392578125 l 1
375.037109375 536.951171875 m 1
 403.756835938 536.951171875 l 1
 477.591796875 266.576171875 l 1
 476.447265625 270.767578125 l 1
 546.98046875 0.392578125 l 1
 518.260742188 0.392578125 l 1
 444.424804688 270.767578125 l 1
 445.5703125 266.576171875 l 1
 375.037109375 536.951171875 l 1
521.563476562 0.392578125 m 1
 606.814453125 270.767578125 l 1
 693.99609375 536.951171875 l 1
 726.017578125 536.951171875 l 1
 638.836914062 270.767578125 l 1
 550.283203125 0.392578125 l 1
 521.563476562 0.392578125 l 1
EndSplineSet
EndChar

StartChar: x
Encoding: 120 120 88
Width: 519
Flags: HW
LayerCount: 2
Fore
SplineSet
41.0888671875 536.951171875 m 1
 76.4189453125 536.951171875 l 1
 282.326171875 268.671875 l 1
 491.541015625 0.392578125 l 1
 456.209960938 0.392578125 l 1
 250.303710938 268.671875 l 1
 41.0888671875 536.951171875 l 1
456.209960938 536.951171875 m 1
 491.541015625 536.951171875 l 1
 282.326171875 268.671875 l 1
 76.4189453125 0.392578125 l 1
 41.0888671875 0.392578125 l 1
 250.303710938 268.671875 l 1
 456.209960938 536.951171875 l 1
EndSplineSet
EndChar

StartChar: y
Encoding: 121 121 89
Width: 558
Flags: HW
LayerCount: 2
Fore
SplineSet
41.0048828125 537.485351562 m 1
 72.9619140625 537.485351562 l 1
 187.670898438 269.751953125 l 1
 299.083984375 2.0185546875 l 1
 270.422851562 2.0185546875 l 1
 155.713867188 269.751953125 l 1
 41.0048828125 537.485351562 l 1
499.83984375 537.485351562 m 1
 531.796875 537.485351562 l 1
 417.087890625 269.751953125 l 1
 302.379882812 2.0185546875 l 1
 273.717773438 2.0185546875 l 1
 385.130859375 269.751953125 l 1
 499.83984375 537.485351562 l 1
270.422851562 2.0185546875 m 1
 302.379882812 2.0185546875 l 1
 217.670898438 -195.693359375 l 1
 185.713867188 -195.693359375 l 1
 270.422851562 2.0185546875 l 1
EndSplineSet
EndChar

StartChar: z
Encoding: 122 122 90
Width: 524
Flags: HW
LayerCount: 2
Fore
SplineSet
98.744140625 513.040039062 m 1
 122.654296875 513.040039062 l 1
 122.654296875 440.811523438 l 1
 98.744140625 440.811523438 l 1
 98.744140625 513.040039062 l 1
439.052734375 24.3037109375 m 1
 415.142578125 24.3037109375 l 1
 415.142578125 96.5322265625 l 1
 439.052734375 96.5322265625 l 1
 439.052734375 24.3037109375 l 1
98.744140625 513.040039062 m 1
 98.744140625 536.951171875 l 1
 439.052734375 536.951171875 l 1
 439.052734375 513.040039062 l 1
 98.744140625 513.040039062 l 1
98.744140625 0.392578125 m 1
 98.744140625 24.3037109375 l 1
 439.052734375 24.3037109375 l 1
 439.052734375 0.392578125 l 1
 98.744140625 0.392578125 l 1
423.127929688 537.030273438 m 1
 439.052734375 513.040039062 l 1
 114.668945312 0.3134765625 l 1
 98.744140625 24.3037109375 l 1
 423.127929688 537.030273438 l 1
EndSplineSet
EndChar

StartChar: braceleft
Encoding: 123 123 91
Width: 335
Flags: HW
LayerCount: 2
Fore
SplineSet
281.538085938 772.936523438 m 1
 281.538085938 750.259765625 l 1
 257.189453125 750.259765625 241.859375 734.930664062 241.859375 710.581054688 c 2
 241.859375 383.58203125 l 2
 241.859375 344.548828125 212.912109375 323.565429688 171.810546875 323.565429688 c 1
 171.810546875 343.903320312 l 1
 196.159179688 343.903320312 211.489257812 359.233398438 211.489257812 383.58203125 c 2
 211.489257812 710.581054688 l 2
 211.489257812 750.5 240.021484375 772.936523438 281.538085938 772.936523438 c 1
171.810546875 341.564453125 m 1
 212.912109375 341.564453125 241.859375 320.581054688 241.859375 281.547851562 c 2
 241.859375 -45.451171875 l 2
 241.859375 -69.80078125 257.189453125 -85.1298828125 281.538085938 -85.1298828125 c 1
 281.538085938 -107.806640625 l 1
 240.021484375 -107.806640625 211.489257812 -85.3701171875 211.489257812 -45.451171875 c 2
 211.489257812 281.547851562 l 2
 211.489257812 305.896484375 196.159179688 321.2265625 171.810546875 321.2265625 c 1
 171.810546875 341.564453125 l 1
EndSplineSet
EndChar

StartChar: bar
Encoding: 124 124 92
Width: 344
Flags: HW
LayerCount: 2
Fore
SplineSet
160.8828125 800 m 1
 192.09765625 800 l 1
 192.09765625 -105.2421875 l 1
 160.8828125 -105.2421875 l 1
 160.8828125 800 l 1
EndSplineSet
EndChar

StartChar: braceright
Encoding: 125 125 93
Width: 335
Flags: HW
LayerCount: 2
Fore
SplineSet
61.974609375 751.553710938 m 1
 61.974609375 774.260742188 l 1
 103.547851562 774.260742188 132.118164062 751.793945312 132.118164062 711.8203125 c 2
 132.118164062 384.375976562 l 2
 132.118164062 359.994140625 147.46875 344.643554688 171.8515625 344.643554688 c 1
 171.8515625 321.936523438 l 1
 130.278320312 321.936523438 101.70703125 344.403320312 101.70703125 384.375976562 c 2
 101.70703125 711.8203125 l 2
 101.70703125 736.203125 86.3564453125 751.553710938 61.974609375 751.553710938 c 1
171.8515625 321.936523438 m 1
 147.46875 321.936523438 132.118164062 306.5859375 132.118164062 282.203125 c 2
 132.118164062 -45.2412109375 l 2
 132.118164062 -85.2138671875 103.547851562 -107.681640625 61.974609375 -107.681640625 c 1
 61.974609375 -84.9736328125 l 1
 86.3564453125 -84.9736328125 101.70703125 -69.623046875 101.70703125 -45.2412109375 c 2
 101.70703125 282.203125 l 2
 101.70703125 321.290039062 130.693359375 342.301757812 171.8515625 342.301757812 c 1
 171.8515625 321.936523438 l 1
EndSplineSet
EndChar

StartChar: asciitilde
Encoding: 126 126 94
Width: 630
Flags: HW
LayerCount: 2
Fore
SplineSet
65.2568359375 214.174804688 m 1
 65.2568359375 278.43359375 126.584960938 323.168945312 194.607421875 323.168945312 c 0
 248.548828125 323.168945312 286.083984375 310.825195312 329.495117188 278.807617188 c 1
 316.815429688 258.536132812 l 1
 277.637695312 287.907226562 243.572265625 299.258789062 194.607421875 299.258789062 c 0
 139.731445312 299.258789062 89.16796875 265.331054688 89.16796875 214.174804688 c 1
 65.2568359375 214.174804688 l 1
581.053710938 323.168945312 m 1
 581.053710938 258.91015625 519.725585938 214.174804688 451.703125 214.174804688 c 0
 397.76171875 214.174804688 360.227539062 226.518554688 316.815429688 258.536132812 c 1
 329.495117188 278.807617188 l 1
 368.672851562 249.436523438 402.73828125 238.084960938 451.703125 238.084960938 c 0
 506.579101562 238.084960938 557.143554688 272.012695312 557.143554688 323.168945312 c 1
 581.053710938 323.168945312 l 1
EndSplineSet
EndChar
